<svg xmlns="http://www.w3.org/2000/svg" xmlns:xlink="http://www.w3.org/1999/xlink" id="Capa_1" x="0px" y="0px" viewBox="0 0 120 50" style="enable-background:new 0 0 120 50;" xml:space="preserve"> <style type="text/css"> .st0{fill:#E63426;} .st1{fill:#17213C;} </style> <g> <polygon class="st0" points="81.9,14.7 83.4,14.7 87,28.4 83.3,28.4 80.9,19.4 "></polygon> <polygon class="st0" points="80.5,20.8 82.5,28.4 78.9,28.4 "></polygon> <polygon class="st0" points="86.4,14.7 87.9,14.7 91.5,28.4 87.8,28.4 85.4,19.4 "></polygon> <polygon class="st1" points="98.4,14.7 97.6,18.3 94.1,18.3 93.1,14.7 "></polygon> <polygon class="st1" points="97.5,19.1 96.7,22.7 95.2,22.7 94.3,19.1 "></polygon> <polygon class="st1" points="92.3,14.7 96,28.4 92.3,28.4 88.6,14.7 "></polygon> <polygon class="st1" points="65.7,14.7 52.2,14.7 51.7,17.2 56.6,17.2 54.1,28.5 57.6,28.5 60.1,17.2 65.1,17.2 "></polygon> <polygon class="st1" points="77.7,15.7 77.7,15.7 77.1,15.3 76.4,15 75.8,14.8 75.3,14.7 74.7,14.6 74.2,14.5 73.2,14.5 72.7,14.5 72.1,14.5 71.6,14.5 71.2,14.6 70.7,14.7 70.2,14.8 69.7,14.9 69.3,15.1 68.8,15.3 68.4,15.4 67.5,15.9 66.8,16.4 66.1,16.9 65.4,17.5 64.9,18.1 64.3,18.8 63.9,19.6 63.5,20.3 63.4,20.7 63.3,21.1 63.2,21.5 63.1,21.9 63,22.3 63,22.7 63,23.4 63,24 63.1,24.6 63.3,25.1 63.5,25.7 63.8,26.2 64.2,26.6 64.6,27 65.1,27.4 65.6,27.7 66.2,28 66.8,28.2 67.5,28.4 68.3,28.5 69,28.5 69.9,28.6 70.7,28.5 71.5,28.5 72.2,28.4 72.9,28.2 73.5,28 74.1,27.8 74.8,27.5 75.4,27.3 76.1,24 75.3,24.4 74.6,24.8 73.8,25.1 73.1,25.3 72.4,25.5 71.7,25.6 71.1,25.7 70.4,25.7 70.2,25.7 69.9,25.7 69.6,25.6 69.3,25.5 68.9,25.4 68.6,25.3 68.3,25.1 68,24.9 67.7,24.7 67.5,24.5 67.2,24.2 67,24 66.9,23.6 66.7,23.3 66.7,22.9 66.6,22.5 66.7,22.1 66.8,21.6 66.9,21.1 67,20.7 67.2,20.3 67.4,19.9 67.7,19.4 68.1,19.1 68.4,18.7 68.9,18.4 69.4,18.1 70,17.9 70.7,17.7 71.4,17.6 72.1,17.5 73,17.4 73.5,17.4 73.9,17.5 74.4,17.6 74.9,17.7 75.4,17.9 75.9,18.1 76.5,18.5 77.1,18.8 "></polygon> <polygon class="st1" points="39.7,14.7 36.3,14.7 33.2,28.5 36.7,28.5 "></polygon> <polygon class="st1" points="29.6,14.7 29.1,17.3 34.3,17.3 34.9,14.7 "></polygon> <polygon class="st1" points="28.5,20.1 27.9,22.6 32.4,22.6 33,20.1 "></polygon> <polygon class="st1" points="28.9,14.7 25.3,14.7 22.3,28.5 25.8,28.5 "></polygon> <polygon class="st1" points="37.5,28.5 45,14.7 46.1,18.9 43.8,23.3 47.3,23.3 48,25.8 42.5,25.8 41,28.5 "></polygon> <polygon class="st1" points="45.8,14.7 49.5,28.5 53.1,28.5 49.2,14.7 "></polygon> <polygon class="st1" points="24.5,31.3 24.4,31.8 24.2,31.7 24,31.7 23.8,31.6 23.6,31.6 23.4,31.6 23.2,31.7 23.1,31.7 23,31.8 22.9,31.9 22.8,32 22.7,32.1 22.7,32.3 22.7,32.4 22.8,32.6 23,32.8 23.3,33.1 23.7,33.5 23.9,33.6 24,33.8 24,34.1 24.1,34.4 24,34.6 23.9,34.8 23.8,35 23.6,35.2 23.4,35.3 23.2,35.5 22.9,35.5 22.6,35.5 22.4,35.5 22.1,35.5 21.8,35.3 21.6,35.2 21.7,34.6 22,34.8 22.3,34.9 22.5,35 22.7,35 23,35 23.2,34.9 23.3,34.8 23.4,34.7 23.5,34.6 23.5,34.5 23.5,34.3 23.4,34.1 23.2,33.9 22.8,33.5 22.4,33.1 22.3,33 22.2,32.8 22.1,32.5 22.1,32.3 22.2,32 22.3,31.8 22.4,31.6 22.6,31.4 22.9,31.3 23.1,31.2 23.4,31.1 23.7,31.1 23.9,31.1 24.1,31.1 "></polygon> <polygon class="st1" points="36,31.1 35.9,31.7 34.1,31.7 33.8,33 35.4,33 35.2,33.5 33.6,33.5 33.3,35 35.2,35 35.1,35.5 32.6,35.5 33.6,31.1 "></polygon> <polygon class="st1" points="47.8,33.6 47.4,35.2 47,35.3 46.7,35.5 46.3,35.5 45.9,35.5 45.5,35.5 45.2,35.4 44.8,35.2 44.6,35 44.4,34.7 44.2,34.4 44.2,34 44.2,33.6 44.2,33.4 44.3,33.1 44.3,32.9 44.5,32.7 44.6,32.4 44.7,32.2 44.9,32 45.2,31.8 45.4,31.7 45.6,31.5 45.9,31.4 46.2,31.3 46.5,31.2 46.8,31.1 47.2,31.1 47.5,31.1 48.3,31.1 48.2,31.7 47.4,31.6 46.8,31.6 46.6,31.7 46.4,31.8 46.1,31.8 45.9,31.9 45.8,32 45.6,32.2 45.3,32.5 45.1,32.9 44.9,33.2 44.8,33.6 44.8,33.9 44.9,34.2 44.9,34.4 45.1,34.6 45.3,34.8 45.5,34.9 45.8,35 46,35 46.2,35 46.5,35 46.7,34.9 46.9,34.8 47.1,34.1 46.4,34.1 46.5,33.6 "></polygon> <polygon class="st1" points="60.5,31.1 59.9,33.8 59.8,34.2 59.6,34.6 59.4,34.9 59.2,35.1 58.9,35.3 58.6,35.4 58.2,35.5 57.9,35.5 57.5,35.5 57.2,35.5 56.9,35.3 56.7,35.2 56.6,35 56.4,34.7 56.4,34.5 56.4,34.2 56.4,33.9 57.1,31.1 57.7,31.1 57,34 57,34.1 57,34.4 57,34.5 57.1,34.7 57.2,34.8 57.4,34.9 57.5,35 57.7,35 57.9,35 58.1,35 58.3,35 58.5,34.9 58.6,34.9 58.7,34.7 58.9,34.6 59,34.5 59.1,34.4 59.2,34.1 59.3,33.6 59.9,31.1 "></polygon> <path class="st1" d="M69.9,31.7L69.6,33h0.3h0.2l0.2,0l0.2-0.1l0.2-0.1l0.1-0.1l0.1-0.1l0.1-0.2l0-0.1v-0.2l0-0.1l-0.1-0.1 l-0.1-0.1l-0.1-0.1l-0.1,0l-0.2,0h-0.2H69.9z M69.4,31.1h0.8l0.4,0l0.3,0.1l0.2,0.1l0.2,0.1l0.1,0.2l0.1,0.2l0,0.2v0.2l0,0.2 l-0.1,0.2l-0.1,0.1L71.4,33l-0.1,0.1L71,33.2l-0.2,0.1l-0.2,0l0.1,0.1l0.1,0.1l0.1,0.3l0.7,1.6H71l-0.4-1L70.4,34l-0.1-0.3 l-0.1-0.1L70,33.6l-0.1,0h-0.2h-0.2L69,35.5h-0.6L69.4,31.1z"></path> <path class="st1" d="M81.6,35L81.6,35l0.3,0l0.3-0.1l0.3-0.2l0.3-0.3L83,34l0.2-0.4l0.1-0.4l0.1-0.5v-0.2l0-0.2l-0.1-0.2l-0.1-0.2 l-0.1-0.1l-0.2-0.1l-0.2-0.1l-0.2,0l-0.1,0l-0.2,0l-0.2,0l-0.1,0.1L81.6,32l-0.3,0.3l-0.2,0.4L80.9,33l-0.1,0.4l-0.1,0.4v0.3l0,0.2 l0.1,0.2l0.1,0.2l0.1,0.1l0.1,0.1l0.2,0.1L81.6,35z M82.5,31.1L82.5,31.1l0.4,0l0.3,0.1l0.2,0.2l0.2,0.2l0.2,0.2l0.1,0.3l0,0.4v0.4 l-0.1,0.5l-0.1,0.3l-0.1,0.2l-0.1,0.2l-0.1,0.2l-0.1,0.2l-0.2,0.2L83,35l-0.2,0.2l-0.2,0.1l-0.2,0.1l-0.2,0.1L82,35.5l-0.2,0h-0.2 h-0.3l-0.3-0.1l-0.2-0.2L80.5,35l-0.2-0.3l-0.1-0.3l0-0.3v-0.4l0.1-0.5l0.2-0.5l0.2-0.5l0.3-0.4l0.2-0.2l0.2-0.1l0.2-0.1l0.2-0.1 l0.2-0.1l0.2-0.1l0.2,0H82.5z"></path> <polygon class="st1" points="95.4,31.3 95.2,31.8 95,31.7 94.8,31.7 94.6,31.6 94.4,31.6 94.3,31.6 94.1,31.7 93.9,31.7 93.8,31.8 93.7,31.9 93.7,32 93.6,32.1 93.6,32.3 93.6,32.4 93.7,32.6 93.8,32.8 94.2,33.1 94.6,33.5 94.7,33.6 94.8,33.8 94.9,34.1 94.9,34.4 94.9,34.6 94.8,34.8 94.6,35 94.5,35.2 94.3,35.3 94.1,35.5 93.8,35.5 93.5,35.5 93.2,35.5 92.9,35.5 92.7,35.3 92.4,35.2 92.6,34.6 92.9,34.8 93.1,34.9 93.3,35 93.6,35 93.8,35 94.1,34.9 94.2,34.8 94.2,34.7 94.3,34.6 94.3,34.5 94.3,34.3 94.2,34.1 94.1,33.9 93.7,33.5 93.3,33.1 93.1,33 93.1,32.8 93,32.5 93,32.3 93,32 93.1,31.8 93.3,31.6 93.5,31.4 93.7,31.3 94,31.2 94.2,31.1 94.5,31.1 94.7,31.1 94.9,31.1 "></polygon> </g> </svg>