<svg xmlns="http://www.w3.org/2000/svg" xmlns:xlink="http://www.w3.org/1999/xlink" id="Capa_1" x="0px" y="0px" viewBox="0 0 120 50" style="enable-background:new 0 0 120 50;" xml:space="preserve"> <style type="text/css"> .st0{fill:#004B93;} .st1{fill:#EA0029;} .st2{fill:#FFFFFF;} </style> <g> <rect x="39.9" y="4.9" class="st0" width="40.1" height="40.1"></rect> <polyline class="st1" points="64.8,24.8 80.1,4.9 77.8,4.9 62.5,24.8 "></polyline> <path class="st2" d="M56.8,38.3l1.1-1.5c-0.1-0.1-0.7-2-0.7-2l-1.1,1.4 M50.7,29c-0.4,0.9-3,4-3,4h4c0,0-0.8-2.4-0.9-2.9 C50.8,29.6,50.8,29.1,50.7,29L50.7,29 M66.1,29c-0.4,0.9-3,4-3,4h4c0,0-0.8-2.4-0.9-2.9C66.2,29.6,66.2,29.1,66.1,29L66.1,29 M70.6,33.6c0.7,2,2.1,7.1,2.7,7.5h-3.8c0,0,0-0.8-0.2-1.3c-0.2-0.6-1.5-5-1.5-5h-6l-0.9,1.3c0,0,1.1,3.6,1.2,3.7 c0.1,0.3,0.7,1.3,0.7,1.3h-3.6c0,0-0.1-0.5-0.1-0.8c0-0.2-0.3-1.2-0.3-1.2s-0.8,0.9-1,1.3c-0.2,0.4-0.3,0.6-0.3,0.6h-2.8 c0,0-0.1-0.5-0.1-0.8c0-0.2-0.4-1.3-0.4-1.3s-0.8,1-1,1.4c-0.2,0.4-0.3,0.6-0.3,0.6h-2.8c0,0,0.8-0.8,1.1-1.1 c0.5-0.5,2.2-2.8,2.2-2.8l-0.7-2.4h-6c0,0-3.4,4.5-3.5,4.6c-0.1,0.1-1.1,1.6-1.1,1.7h-1.8v-1.1l0.1-0.1c0.1,0,2.6-3.2,4.9-6.3 c2.1-2.7,4-5.3,4.2-5.6c0.4-0.6,1-1.9,1-1.9h3.1c0,0,0.1,1.2,0.2,1.5c0.1,0.3,2,6.4,2,6.5l1-1.3l-1.8-5.5c0,0-0.4-1-0.6-1.2h3.6 c0,0,0,0.5,0.1,1c0.1,0.4,0.9,3.2,0.9,3.2s2.5-3.1,2.6-3.3c0.3-0.4,0.3-0.9,0.3-0.9h3c0,0-0.5,0.4-1.5,1.6 c-0.3,0.4-3.5,4.4-3.5,4.4s0.3,0.9,0.4,1.4c0,0.1,0.1,0.2,0.1,0.2c0,0,0.1-0.1,0.2-0.2c0.8-1,4.5-5.9,4.8-6.3 c0.2-0.3,0.4-0.7,0.6-1.1h2.9c0,0,0.1,0.9,0.2,1.1L70.6,33.6z"></path> </g> </svg>