<svg xmlns="http://www.w3.org/2000/svg" xmlns:xlink="http://www.w3.org/1999/xlink" id="Capa_1" x="0px" y="0px" viewBox="0 0 120 50" style="enable-background:new 0 0 120 50;" xml:space="preserve"> <style type="text/css"> .st0{fill:#C5281C;} </style> <g> <path class="st0" d="M47.6,37.6v-2.7c1.7,0,2.3-0.1,2.7,2h0.2v-2.3h-4.7v0.3h0.8v6.1h-0.9v0.3h4.9v-2.5h-0.2 c-0.2,1.9-0.7,2.2-2.1,2.2h-0.6V38h0.4c0.6,0,0.9,0.4,1.1,1.4h0.2v-3.1H49c0,0,0,1.3-1.1,1.3L47.6,37.6L47.6,37.6z M45.7,37.7H43 V38h0.9v2.2c-0.1,0.5-1,0.8-1.2,0.8c-1.7,0-1.6-2.5-1.6-3.2c0-0.6,0-3.2,1.6-3.2c1.2,0,1.8,1.1,2,2.2h0.2v-2.4c0,0-0.8,0.6-0.8,0.5 c0,0-0.4-0.5-1.4-0.5c-2,0-2.7,2-2.7,3.4c0,1.3,0.6,3.5,2.7,3.5c0.7,0,1.1-0.4,1.4-0.7l0.9,0.7V38h0.7L45.7,37.7L45.7,37.7z M76.7,38.7c-0.2,1.9-0.7,2.2-2.1,2.2h-0.1v-6h0.9v-0.3h-2.8v0.3h0.9v6.1h-0.7l-2.5-6.6H70c0,0-2.1,5.9-2.1,6c0,0-0.1,0.5-0.5,0.6 c-0.3,0-0.3-0.1-0.3-0.2v-1.2c0-0.3,0-1-0.3-1.3c-0.4-0.4-0.9-0.4-0.9-0.4c0,0,1.5-0.3,1.5-1.8c0-1-0.7-1.5-1.9-1.6h-3.3v0.3H63 v6.1h-0.9v0.3h2.7v-0.3h-0.9V38h1.1c2,0.2-0.4,3.2,2.3,3.2h1.6v-0.3c-0.1,0-0.7,0-0.7-0.4c0-0.3,0.4-1.4,0.4-1.4H71 c0,0,0.7,1.8,0.7,1.8H71v0.3H77v-2.5H76.7z M65.1,37.6h-1.1v-2.8h1.4c0.8,0.1,0.9,1.1,0.9,1.4C66.3,36.9,66,37.6,65.1,37.6 M68.9,38.8l1-2.9l1,2.9H68.9z M58.8,34.8c1.7,0,2.4-0.1,2.7,2h0.2v-2.3h-6.9v0.3H55c0.2,0,0.8,0,0.9,0.5v3.9l-3.2-4.7h-1.8v0.3 h0.3c0.4,0,0.8,0,0.9,0.5v5c0,0.5-0.7,0.7-1,0.7v0.2h2.4V41c-0.3,0-1-0.2-1-0.7v-4.4c1.3,1.8,3.7,5.3,3.7,5.3h0.1v-5.9 c0-0.5,0.6-0.5,0.9-0.5h0.8v6.1h-0.9v0.3h4.9v-2.5h-0.2c-0.2,1.9-0.7,2.2-2.1,2.2h-0.6V38h0.4c0.6,0,0.9,0.4,1.1,1.4h0.2v-3.1h-0.2 c0,0,0,1.3-1.1,1.3h-0.3L58.8,34.8L58.8,34.8z M77.3,34.5v0.4h0.9v6h-0.9v0.3h2.7v-0.3h-0.9v-6h0.9v-0.4H77.3z M72.8,30.3l0.9-0.3 c1.2-0.5,1.4-0.8,1.3-1.6v-3.2c0.9,2.3,1.8,4,3.6,4c0.2,0,0.5,0,0.8-0.1l0.7-0.1l-0.5-0.5c-0.3-0.3-0.5-0.6-0.6-0.9 c-0.1-0.1-0.1-0.3-0.2-0.4c-0.4-0.7-1.4-0.9-2.2-0.5c-0.4-0.7-0.7-1.7-1.2-2.8l-0.1-0.2c-0.1-0.2-0.1-0.4-0.2-0.5v0 c-0.3-0.6-0.6-1.2-0.9-1.8c-0.3-0.5-0.6-1-1-1.4c-0.9-1.1-2.2-1.8-3.7-2c-1-0.2-1.8-0.2-2.7-0.3c-0.2,0-0.4,0-0.6,0 c-0.4,0-1.3-0.1-2.1-0.2c-0.6,0-1.1-0.1-1.6-0.1c0-0.1,0-0.3,0-0.4c0-0.2,0-0.4,0-0.5h5.9c1.5,0,2.7-0.7,3.3-2c1.5,0,2.6-0.7,3.3-2 h0.2c1.6,0,2.7-0.7,3.4-2.2l0.2-0.4H58.6c-1.3,0-2.4,0.9-2.9,2.2v0c-0.4-0.9-0.9-1.8-1.8-2.3c-1.1-0.7-2.4-0.9-3.4-0.6 c-0.3,0.1-0.7,0.2-0.9,0.4c-0.2,0.2-0.6,0.4-0.8,0.7c-0.3,0.3-0.5,0.7-0.7,1.1c-0.1,0.1-0.2,0.2-0.3,0.3l-0.2,0.5v0 c-0.3,0.6-0.6,1.1-0.9,1.4c-0.3,0.3-0.3,0.6-0.3,0.8c0,0.2,0.1,0.4,0.3,0.5c-0.1,0.1-0.1,0.3-0.1,0.5c0,0.5,0.5,0.9,1,0.9 c0.4,0,0.8-0.2,1.1-0.5c0.1-0.1,0.5-0.4,0.7-0.4c0.2,0,0.3,0.1,0.3,0.3c0,0.5-0.5,0.7-0.9,0.7l-0.8,0.1c-0.6,0-0.9,0.4-0.9,0.6 c0,0.3,0.1,0.5,0.2,0.5l0,0l0.2,0.2l-0.9,1.4c-0.6-0.6-1.4-0.9-2-0.9c-0.4,0-0.8,0.1-1,0.4c-0.1,0.1-0.1,0.1-0.2,0.2 c-0.7,0-1.2,0.4-1.5,0.8c-0.3,0.5-0.2,1.2,0.2,1.8L40,22v10.5h40.1v-2.1L72.8,30.3L72.8,30.3z M78,27.5c0.1,0.1,0.1,0.3,0.2,0.4 c0.1,0.1,0.2,0.3,0.3,0.5c-0.6,0-1.1-0.4-1.5-1C77.3,27.1,77.8,27.2,78,27.5 M69.3,18.6c1.3,0.2,2.3,0.8,3.2,1.7 c0.2,0.2,0.3,0.4,0.5,0.6c-2.2-0.3-2.9-0.6-4.1-2.4C69,18.5,69.1,18.5,69.3,18.6 M68.3,15.4h-4.1c0.4-0.3,0.6-0.7,0.9-1.2h5.5 C70.2,15.1,69.4,15.4,68.3,15.4 M71.6,13.4h-4.1c0.4-0.3,0.7-0.7,0.9-1.2h5.5C73.5,13,72.7,13.4,71.6,13.4 M71.9,10.3h5.5 c-0.5,0.7-1.3,1.1-2.3,1.1H71C71.4,11.1,71.7,10.7,71.9,10.3 M49.5,10.5c0.1-0.2,0.4-0.4,0.6-0.5c0.2-0.1,0.5-0.3,0.7-0.3 c0.4-0.1,0.9-0.1,1.3,0l-1.5,0.9c-0.2,0-0.4,0-0.5,0C49.9,10.5,49.6,10.5,49.5,10.5C49.5,10.6,49.5,10.6,49.5,10.5 M47.8,17 C47.8,17,47.9,16.9,47.8,17l0.8,0c0.9,0,1.8-0.4,1.8-1.3c0-0.6-0.5-1.2-1-1.2c-0.3,0-0.7,0.2-1.1,0.5c-0.3,0.2-0.5,0.3-0.6,0.3 c-0.1,0-0.2-0.1-0.2-0.1v0l0.5-0.6l-0.4-0.3c-0.1,0-0.2-0.2-0.2-0.2s0-0.1,0-0.1c0.2-0.2,0.4-0.4,0.5-0.7c0.1-0.2,0.2-0.3,0.4-0.3 c0.2,0,0.4,0.1,0.4,0.4c0,0.1,0.1,0.2,0.3,0.2s0.3-0.1,0.4-0.2c0,0,0.4-0.4,0.2-0.5c-0.2-0.2-1.2,0.2-0.9-0.7l0.1-0.1 c0.1-0.1,0.6-0.5,1.5-0.5c0.2,0,0.4,0,0.6,0h0.1l2.1-1.3c0,0,0,0.1,0,0.1c0.1,0.6-0.3,1.4-0.9,1.7L51.8,12L52,13 c-0.5,0.2-0.9,0.6-0.9,1.1c0,0.2,0,0.4,0.1,0.6c0,0.3,0.1,0.6,0.1,0.9c0,1-1.4,1.6-2.5,1.6h0C48.8,17.2,48.1,17.2,47.8,17 C47.8,17.1,47.8,17,47.8,17 M42.7,20.1c0.2-0.3,0.5-0.5,1-0.4l0.4,0l0.1-0.3c0-0.1,0.1-0.2,0.1-0.2c0.1-0.1,0.3-0.1,0.5-0.1 c0.5,0,1.1,0.4,1.6,0.9c0.2,0.2,0.4,0.5,0.5,0.7c0,0,0,0.1,0.1,0.1c0,0,0.1,0.1,0.1,0.1c0,0,0.3,0.4,0.3,0.5 c0.2-0.2,0.4-0.5,0.5-0.7v0c0-0.1-0.1-0.2-0.2-0.3l0,0c0,0,0,0,0-0.1c0-0.1-0.1-0.2-0.2-0.3l1.1-1.7c0.3,0,0.5,0,0.6,0h0 c1.5,0,3.1-0.9,3.1-2.3v0c0-0.4-0.1-0.8-0.1-1.1c0-0.2-0.1-0.4-0.1-0.5c0-0.2,0.2-0.4,0.5-0.4h0.5l-0.2-1.3 c0.7-0.5,1.1-1.4,1.1-2.1c0.8,0.6,1.3,1.6,1.4,2.6c0,0.3,0,0.7-0.1,1.2l0,0.2c-0.2,0.7-0.5,1.5-0.6,1.8l-0.1,0.3l0.3,0.2 c0.5,0.3,0.9,0.5,0.9,1.3c0,0.9-0.8,1.5-1.5,1.6l-1,0.2l0.9,0.6c0.3,0.2,0.5,0.5,0.5,0.8c0,0.5-0.5,0.9-1,0.9h-0.3L53,22.5 c-0.3,1-0.6,1.5-1.7,1.6v-1v-0.5l0-0.9l-0.7,0.7c-0.2,0.2-0.6,0.4-1.1,0.5V22l-4.7-1.3l-1.7,0.5C42.7,20.8,42.6,20.2,42.7,20.1 M41.3,30.3l3.4-0.9l3.4,0.9H41.3z M48.6,29.6l-3.9-1l-3.9,1v-7l3.9-1l3.9,1V29.6z M50.5,28.3c-0.4,0.5-0.4,1.2-0.1,2.1h-0.9v-6.7 c0.3,0,0.6-0.1,0.9-0.3c0,0.3,0,0.5-0.1,0.8c0,0.1,0,0.1,0,0.2l-0.1,0.5h0.5c0.7,0,1.3-0.1,1.7-0.3v2.8c0,0.1,0,0.1-0.1,0.1h-0.1 C51.4,27.5,50.8,27.8,50.5,28.3 M59.5,28.5c-0.3,0.4-0.6,0.9-0.4,1.9H54c0.5,0,0.9-0.2,1.2-0.5c0.3-0.4,0.4-0.8,0.4-1.2 c0,0,0-0.1,0.3-0.3l0.5-0.2l-0.3-0.4c-0.5-0.7-0.2-2.1-0.1-2.9h0c1.7,0,2.8-0.4,4-0.7c0.3-0.1,0.6-0.2,0.9-0.3 c0.3-0.1,0.4-0.1,0.8-0.2l1.7,2.7v0c0.2,0.2,0.2,0.4-0.1,0.7l-0.8,0.9l-1.4-0.3C60.6,27.7,59.9,28,59.5,28.5 M60,30.3 c-0.1-0.6-0.1-1,0.2-1.4c0.3-0.3,0.6-0.4,0.9-0.4l1.6,0.3h0.3l1.1-1.2c0.2-0.2,0.8-0.9,0.2-1.8l-1.5-2.4c0.2,0,0.5,0,0.7,0 s0.8,0,1.6,0.5c0.1,0.2,0.3,0.5,0.4,0.9c0.3,0.6,0.7,1.4,0.8,1.8c0,0.1,0.1,0.4-0.2,0.8l-2.8,3L60,30.3L60,30.3z M69.7,30.3h-5.4 l2.3-2.4c0.5-0.5,0.6-1.1,0.4-1.6c-0.1-0.3-0.4-0.9-0.7-1.6c0.9,0.4,2.3,0.8,5.1,1c0.4,0,0.5,0.1,0.5,0.5l0.1,1.2l-1.5,0.3 c-0.5,0.1-0.9,0.4-1.1,0.9C69.3,29.1,69.4,29.8,69.7,30.3 M70.3,28.9c0.1-0.2,0.2-0.4,0.5-0.4l2.2-0.5l-0.2-2v0 c0-0.3-0.2-1-1.3-1.1c-4-0.3-4.9-0.9-5.9-1.5l0,0c-1-0.7-2.1-0.7-2.2-0.7c-1.1,0-2.5,0.5-2.7,0.5c-0.4,0.1-0.7,0.2-1,0.3 c-1.3,0.4-2.3,0.8-4.1,0.7h-0.3l-0.1,0.3c0,0.2-0.6,2.3-0.1,3.5c-0.5,0.4-0.5,0.7-0.5,0.8c0,0.5-0.1,0.5-0.1,0.6 c-0.2,0.2-0.9,0.2-1.5,0.2h-0.2l-0.1,0.2c-0.4,0.5-1.1,0.6-1.6,0.5c-0.2-0.7-0.2-1.2,0-1.5c0.3-0.4,0.8-0.4,1-0.4h0.1 c0.5,0,0.9-0.5,0.9-0.9v-3.6c0.2-0.2,0.3-0.5,0.4-0.9c0.9-0.1,1.5-0.9,1.5-1.8c0-0.4-0.1-0.7-0.3-0.9c0.8-0.4,1.5-1.2,1.5-2.2 s-0.5-1.5-1-1.8c0.1-0.4,0.4-1.1,0.5-1.8l0.7-2.5c0.3-1,1.1-1.6,2.1-1.6h12.3c-0.5,0.7-1.3,1.1-2.3,1.1h-7.3l-0.4,0.8h6.7 c-0.5,0.8-1.3,1.2-2.4,1.2h-4.8l-0.4,0.8h4.3c-0.5,0.8-1.3,1.2-2.3,1.2h-2.6l-0.4,0.8h2.7c0,0,0.1,0.2,0.1,0.5c0,0.5-0.5,0.9-1,0.9 c-0.2,0-0.4,0-0.6-0.2c-0.1,0-0.2-0.1-0.4-0.1L59,17.9c0.1,0,0.2,0.1,0.4,0.1c0.5,0.2,0.9,0.4,1.3,0.4c0.5,0,0.9-0.2,1.3-0.5 c0.5,0,1.2,0.1,2,0.1c0.9,0.1,1.7,0.1,2.2,0.2c0.2,0,0.4,0,0.6,0c0.4,0,0.7,0,1,0c1.7,2.7,2.5,3.1,5.8,3.5c0.2,0.4,0.5,0.9,0.6,1.3 v5.7c-0.1,0.1-0.6,0.4-0.8,0.4l-2.7,1.1C70.3,29.8,70.1,29.3,70.3,28.9"></path> <path class="st0" d="M45.2,23.9l2.6,0.7v-0.9L45.2,23V23.9z M44.3,23l-2.6,0.7v0.9l2.6-0.7V23z M44.3,24.8l-2.6,0.7v0.9l2.6-0.7 V24.8z M45.2,25.6l2.6,0.7v-0.9l-2.6-0.7V25.6z M45.2,27.3l2.6,0.7v-0.9l-2.6-0.7V27.3z M44.3,26.5l-2.6,0.7V28l2.6-0.7V26.5z"></path> </g> </svg>