<svg xmlns="http://www.w3.org/2000/svg" xmlns:xlink="http://www.w3.org/1999/xlink" id="Capa_1" x="0px" y="0px" viewBox="0 0 120 50" style="enable-background:new 0 0 120 50;" xml:space="preserve"> <style type="text/css"> .st0{fill:#76777A;} .st1{fill:#CE0E2D;} </style> <g> <path class="st0" d="M43.7,33.8c-1,0-1.8-0.2-1.8-0.2v-1.7h0.8v0.9l0.2,0.2c0.2,0,0.5,0.1,0.9,0.1c0.7,0,0.9-0.3,0.9-0.8 c0-0.5-0.2-0.7-0.9-0.9c-1.2-0.3-1.8-0.8-1.8-2c0-1.2,1-1.8,2.3-1.8c0.9,0,1.7,0.2,1.7,0.2v1.6h-0.8v-0.8l-0.1-0.2 c-0.2,0-0.4-0.1-0.7-0.1c-0.6,0-1,0.3-1,0.7c0,0.5,0.1,0.7,1.1,0.9c1.1,0.3,1.8,0.8,1.8,1.9C46.1,33.2,45.1,33.8,43.7,33.8"></path> <path class="st0" d="M48.1,31h1.2v-0.2c0-0.7-0.1-1-0.5-1C48.4,29.8,48.1,30.3,48.1,31 M50.4,31.7h-2.3c0,1,0.4,1.3,1.3,1.3 c0.5,0,0.8-0.1,1-0.2v0.7c-0.2,0.2-0.7,0.3-1.4,0.3c-1.1,0-2.1-0.7-2.1-2.3c0-1.7,0.9-2.5,2-2.5c1.1,0,1.8,0.7,1.8,1.9v0.6 L50.4,31.7z"></path> <path class="st0" d="M53.1,29.7c-0.4,0-0.6,0.3-0.6,0.8c0,0.5,0.2,0.8,0.6,0.8c0.4,0,0.7-0.3,0.7-0.8C53.8,30,53.6,29.7,53.1,29.7 M52.3,33.7c-0.1,0.1-0.1,0.3-0.1,0.5c0,0.4,0.2,0.6,0.9,0.6c0.7,0,1.1-0.2,1.1-0.7c0-0.3-0.2-0.4-0.6-0.4H52.3z M53.1,32 c-0.2,0-0.4,0-0.6-0.1c-0.1,0.1-0.2,0.2-0.2,0.3c0,0.2,0.1,0.3,0.4,0.3H54c0.8,0,1.5,0.2,1.5,1.2c0,1.1-1.1,1.6-2.5,1.6 c-1.2,0-1.9-0.2-1.9-1c0-0.4,0.3-0.6,0.6-0.8c-0.3-0.1-0.5-0.4-0.5-0.8c0-0.4,0.2-0.8,0.7-1.1c-0.4-0.3-0.6-0.6-0.6-1.2 c0-1,0.9-1.5,1.9-1.5c0.2,0,0.5,0,0.7,0.1h1.7v0.6h-0.6l-0.1,0.1c0.1,0.2,0.2,0.4,0.2,0.7C55,31.5,54.1,32,53.1,32"></path> <path class="st0" d="M59.9,29.1c0.4,0,0.4,0.2,0.4,0.4V33l0.2,0.2h0.4v0.6h-1.4c-0.3,0-0.4-0.2-0.4-0.4v-0.1h0 c-0.1,0.2-0.6,0.6-1.2,0.6c-1,0-1.3-0.6-1.3-1.4v-2.5l-0.2-0.2h-0.4v-0.6h1.5c0.4,0,0.4,0.2,0.4,0.4v2.7c0,0.3,0,0.6,0.5,0.6 c0.3,0,0.6-0.1,0.7-0.2v-2.7l-0.2-0.2h-0.4v-0.6H59.9z"></path> <path class="st0" d="M63.3,33.1h0.5v0.6h-2.5v-0.6h0.4l0.2-0.2v-3l-0.2-0.2h-0.4v-0.6h1.4c0.3,0,0.4,0.2,0.4,0.4v0.2h0 c0.1-0.2,0.6-0.7,1.3-0.7c0.2,0,0.3,0,0.3,0v1.8h-0.8v-0.6l-0.1-0.1c-0.3,0-0.5,0.2-0.6,0.2V33L63.3,33.1z"></path> <path class="st0" d="M67.3,29.9c-0.6,0-0.7,0.5-0.7,1.6c0,1.1,0.1,1.6,0.7,1.6c0.6,0,0.7-0.5,0.7-1.6C68,30.4,67.9,29.9,67.3,29.9 M67.3,33.8c-1.2,0-2.1-0.7-2.1-2.4c0-1.7,0.9-2.4,2.1-2.4c1.2,0,2.1,0.7,2.1,2.4C69.4,33.1,68.5,33.8,67.3,33.8"></path> <path class="st0" d="M71.6,33.8c-0.9,0-1.5-0.2-1.5-0.2v-1.3h0.7v0.6l0.2,0.2c0.2,0,0.4,0,0.6,0c0.5,0,0.7-0.2,0.7-0.6 c0-0.3-0.1-0.5-0.8-0.7c-1.1-0.2-1.3-0.8-1.3-1.4c0-0.9,0.7-1.5,1.9-1.5c0.8,0,1.3,0.2,1.3,0.2v1.3h-0.7v-0.5l-0.1-0.1 c-0.1,0-0.3,0-0.5,0c-0.4,0-0.7,0.2-0.7,0.5c0,0.3,0,0.5,0.7,0.6c1.1,0.2,1.6,0.7,1.6,1.4C73.5,33.3,72.7,33.8,71.6,33.8"></path> <path class="st0" d="M44.5,16.7v3.5h1.1c1.2,0,1.6-0.6,1.6-1.8c0-1.2-0.4-1.8-1.6-1.8H44.5z M42.1,16.5l-0.3-0.3h-0.6v-1.1h4.3 c2.5,0,4.1,1,4.1,3.2c0,2.3-1.6,3.3-4.1,3.3h-1.1V24l0.2,0.3h0.8v1.1h-4.3v-1.1h0.6l0.3-0.3V16.5z"></path> <path class="st0" d="M52.4,14.7c0.6,0,0.7,0.3,0.7,0.6V24l0.3,0.3H54v1.1h-4v-1.1h0.6l0.3-0.3v-8l-0.3-0.3H50v-1.1H52.4z"></path> <path class="st0" d="M61.1,17.6c0.6,0,0.7,0.3,0.7,0.6V24l0.3,0.3h0.6v1.1h-2.3c-0.6,0-0.7-0.3-0.7-0.6v-0.2h-0.1 c-0.2,0.3-0.9,1-2.1,1c-1.7,0-2.2-1.1-2.2-2.3v-4.2l-0.3-0.3h-0.6v-1.1h2.5c0.6,0,0.7,0.3,0.7,0.6v4.5c0,0.4,0,1,0.9,1 c0.5,0,0.9-0.2,1.2-0.4v-4.5l-0.3-0.3h-0.6v-1.1H61.1z"></path> <path class="st0" d="M65.9,25.5c-1.5,0-2.5-0.3-2.5-0.3V23h1.2v1l0.2,0.3c0.3,0,0.6,0.1,1,0.1c0.8,0,1.1-0.4,1.1-0.9 c0-0.6-0.2-0.8-1.4-1.1c-1.8-0.4-2.2-1.3-2.2-2.3c0-1.5,1.1-2.5,3.1-2.5c1.3,0,2.2,0.3,2.2,0.3v2.1h-1.2v-0.9l-0.3-0.2 c-0.2,0-0.5-0.1-0.8-0.1c-0.7,0-1.2,0.3-1.2,0.8c0,0.5,0,0.8,1.1,1c1.9,0.4,2.6,1.1,2.6,2.3C69.2,24.6,67.8,25.5,65.9,25.5"></path> <path class="st0" d="M75.9,16.5l-0.3-0.3H75v-1.1h3.7v1.1h-0.7l-0.2,0.3V22c0,2.4-1.4,3.5-3.7,3.5c-2.2,0-3.7-1.1-3.7-3.5v-5.5 l-0.3-0.3h-0.6v-1.1h4.2v1.1h-0.6l-0.3,0.3V22c0,1.3,0.4,2,1.5,2c1.2,0,1.5-0.7,1.5-2V16.5z"></path> <path class="st0" d="M81.8,14.7c0.6,0,0.7,0.3,0.7,0.6V24l0.3,0.3h0.7v1.1h-4v-1.1H80l0.3-0.3v-8L80,15.8h-0.6v-1.1H81.8z"></path> <path class="st0" d="M86.9,18.7V24l0.3,0.3h1.4v1.1c0,0-0.9,0.2-2,0.2c-1.3,0-1.9-0.5-1.9-1.8v-5h-0.9v-1.1h0.7l0.3-0.3l0.8-1.8 h1.4v2.1h1.6v1.1H86.9z"></path> <path class="st0" d="M92.4,24.3h0.8v1.1h-4.2v-1.1h0.6L90,24v-5.1l-0.3-0.3h-0.6v-1.1h2.3c0.6,0,0.7,0.3,0.7,0.6v0.4h0.1 c0.2-0.3,1-1.2,2.1-1.2c0.3,0,0.6,0,0.6,0v3.1h-1.3v-1l-0.2-0.2c-0.5,0.1-0.8,0.3-1,0.4V24L92.4,24.3z"></path> <path class="st0" d="M99.4,23.4v-1.3h-1c-0.7,0-1,0.3-1,0.8c0,0.6,0.2,0.9,0.9,0.9C98.8,23.8,99.2,23.6,99.4,23.4 M102.5,25.3h-2.3 c-0.6,0-0.7-0.3-0.7-0.6v-0.2h-0.1c-0.2,0.3-0.9,1-2.1,1c-1.7,0-2.2-1.1-2.2-2.3c0-1.4,1-2.2,2.6-2.2h1.7v-0.7 c0-0.8-0.1-1.5-1.3-1.5c-0.2,0-0.4,0-0.7,0l-0.2,0.2v1h-1.4v-2.2c0,0,1.2-0.4,3-0.4c2.1,0,2.7,1.1,2.7,2.5V24l0.3,0.3h0.6V25.3z"></path> <path class="st1" d="M25.9,25.6c2.2,2.2,3.1,5.8,3.5,7.2c0.2,0.8,1.1,1.3,1.9,1.1c0.8-0.2,1.3-1.1,1.1-1.9c-0.4-1.4-1.4-5-0.6-8 c0.8-3,3.5-5.6,4.5-6.6c0.6-0.6,0.6-1.6,0-2.2c-0.6-0.6-1.6-0.6-2.2,0c-1,1.1-3.6,3.8-6.6,4.5c-3,0.8-6.6-0.2-8-0.6 c-0.8-0.2-1.7,0.3-1.9,1.1c-0.2,0.8,0.3,1.7,1.1,1.9C20.1,22.5,23.7,23.3,25.9,25.6"></path> </g> </svg>