<svg xmlns="http://www.w3.org/2000/svg" xmlns:xlink="http://www.w3.org/1999/xlink" id="Capa_1" x="0px" y="0px" viewBox="0 0 120 50" style="enable-background:new 0 0 120 50;" xml:space="preserve"> <style type="text/css"> .st0{fill-rule:evenodd;clip-rule:evenodd;fill:#E1251B;} .st1{fill-rule:evenodd;clip-rule:evenodd;fill:#FFFFFF;} </style> <g> <path class="st0" d="M26.4,16.1c4.9,0,8.9,4,8.9,8.9c0,4.9-4,8.9-8.9,8.9c-4.9,0-8.9-4-8.9-8.9C17.5,20.1,21.5,16.1,26.4,16.1"></path> <path class="st1" d="M26.4,16.9c-4.5,0-8.1,3.6-8.1,8.1c0,4.5,3.6,8.1,8.1,8.1c4.5,0,8.1-3.6,8.1-8.1 C34.5,20.5,30.9,16.9,26.4,16.9"></path> <path class="st0" d="M28.3,21.7c0.2,0.1,0.3,0.3,0.3,0.5c0,0.1,0,0.2-0.1,0.3l-1.8,3.1c0,0.1-0.1,0.2-0.2,0.2 c-0.1,0-0.2-0.1-0.2-0.2l-1.8-3.1c-0.1-0.1-0.1-0.2-0.1-0.3c0-0.2,0.1-0.4,0.3-0.5c0,0,0,0,0,0c0.6-0.2,1.2-0.3,1.8-0.3 C27.1,21.4,27.7,21.5,28.3,21.7C28.2,21.7,28.3,21.7,28.3,21.7 M22.9,22.8c0.1-0.1,0.3-0.1,0.5,0c0.1,0,0.1,0.1,0.2,0.2l1.5,2.6 c0,0.1,0.1,0.2,0,0.2c0,0.1-0.1,0.1-0.2,0.1l-3,0c-0.1,0-0.2,0-0.3-0.1c-0.2-0.1-0.2-0.3-0.2-0.4c0,0,0,0,0,0 c0.1-0.5,0.3-1,0.5-1.4C22.2,23.5,22.5,23.1,22.9,22.8C22.9,22.8,22.9,22.8,22.9,22.8z M30,22.8c-0.1-0.1-0.3-0.1-0.5,0 c-0.1,0-0.1,0.1-0.2,0.2l-1.5,2.6c0,0.1-0.1,0.2,0,0.2c0,0.1,0.1,0.1,0.2,0.1l3,0c0.1,0,0.2,0,0.3-0.1c0.2-0.1,0.2-0.3,0.2-0.4 c0,0,0,0,0,0c-0.1-0.5-0.3-1-0.5-1.4C30.7,23.5,30.3,23.1,30,22.8C30,22.8,30,22.8,30,22.8z M26.9,26.7v2.7H26v-2.7 c-0.4,0-1,0-1.2,0l-2.9,0c-0.2,0-0.5,0-0.7-0.2c-0.4-0.3-0.7-0.7-0.7-1.2c0-0.1,0-0.1,0-0.2c0.1-0.6,0.3-1.2,0.6-1.7 c0.3-0.5,0.7-1,1.2-1.4c0.3-0.2,0.7-0.3,1.1-0.3c0.1-0.4,0.4-0.7,0.7-0.9c0.1,0,0.1-0.1,0.2-0.1c0.7-0.2,1.4-0.4,2.1-0.4 c0.7,0,1.5,0.1,2.1,0.4c0.4,0.2,0.7,0.5,0.9,0.9c0.4-0.1,0.8,0,1.1,0.2c0.5,0.4,0.9,0.9,1.2,1.4c0.3,0.5,0.5,1.1,0.6,1.7 c0,0,0,0.1,0,0.2c0,0.5-0.2,0.9-0.7,1.2c-0.2,0.1-0.5,0.2-0.7,0.2l-2.9,0C27.8,26.7,27.3,26.7,26.9,26.7z"></path> <polyline class="st0" points="43.1,20.3 45.3,24.8 47.5,20.3 50.8,20.3 50.8,29.3 47.5,29.3 47.5,24.8 45.3,29.3 43.1,24.8 43.1,29.3 39.8,29.3 39.8,20.3 43.1,20.3 "></polyline> <path class="st0" d="M51.9,29.3l2.6-8.9h5.8l2.6,8.9h-3.3l-0.4-1.5h-3.5l-0.4,1.5H51.9 M57.3,21.7L56,26.3h2.7L57.3,21.7z"></path> <path class="st0" d="M70,20.3c1.4,0,2.6,1.2,2.6,2.6c0,1.4-1.2,2.6-2.6,2.6h-2.9v3.7h-3.3v-8.9H70 M67.9,21.3 c0.7,0,1.5,0.4,1.5,1.2c0,0.8-0.6,1.5-1.5,1.5h-0.7v-2.7H67.9z"></path> <polyline class="st0" points="73.8,20.3 82.6,20.3 82.6,21.8 77.1,21.8 77.1,24.1 82.6,24.1 82.6,25.5 77.1,25.5 77.1,29.3 73.8,29.3 73.8,20.3 "></polyline> <polyline class="st0" points="97,27.8 102.5,27.8 102.5,29.3 93.7,29.3 93.7,20.3 102.5,20.3 102.5,21.8 97,21.8 97,24.1 102.5,24.1 102.5,25.5 97,25.5 97,27.8 "></polyline> <path class="st0" d="M92.5,27v2.2h-3.2v-2.2c0,0,0,0,0-0.1c0-0.8-0.7-1.5-1.5-1.5h-0.7v3.7l-3.4,0v-8.9h6.5c1.2,0,2.2,1,2.2,2.2 s-1,2.2-2.2,2.2C91.5,24.8,92.5,25.8,92.5,27C92.5,27,92.5,27,92.5,27 M92.5,27L92.5,27C92.5,27,92.5,27,92.5,27z M87.8,21.3 c0.7,0,1.5,0.4,1.5,1.2c0,0.8-0.7,1.5-1.5,1.5h-0.7v-2.7H87.8z"></path> </g> </svg>