<svg xmlns="http://www.w3.org/2000/svg" xmlns:xlink="http://www.w3.org/1999/xlink" id="Capa_1" x="0px" y="0px" viewBox="0 0 120 50" style="enable-background:new 0 0 120 50;" xml:space="preserve"> <style type="text/css"> .st0{fill:#003671;} .st1{fill:#FFFFFF;} .st2{fill:none;stroke:#003671;stroke-width:0.4199;stroke-miterlimit:3.864;} </style> <g> <path class="st0" d="M54.5,23.9c0,0.7,0.3,0.9,1.4,0.9c1.1,0,1.6-0.3,2.3-1.8h0.3l-0.3,2.3h-6.7v-0.2c1-0.3,1.1-0.5,1.1-1.4v-5.6 c0-0.8-0.2-1-1.1-1.2v-0.3h4.1v0.3c-0.9,0.2-1.1,0.4-1.1,1.2V23.9z"></path> <path class="st0" d="M61.2,24.1c0,0.6,0.3,0.9,0.9,1v0.2h-3.5v-0.2c0.8-0.2,1-0.4,1-1.1v-3c0-0.7-0.2-0.9-1-1v-0.3l2.4-0.2h0.3 V24.1z"></path> <path class="st0" d="M60.3,16c0.5,0,1,0.4,1,1c0,0.5-0.4,1-1,1c-0.5,0-1-0.4-1-1C59.3,16.4,59.8,16,60.3,16"></path> <path class="st0" d="M66.3,20.3c0.9,0.1,1.5,1,1.5,2.3c0,1.5-0.6,2.3-1.5,2.5v0.5c2.4-0.1,3.4-1.5,3.4-3.2c0-1.6-1.2-2.9-2.7-2.9 c-0.2,0-0.4,0-0.7,0.1V20.3z"></path> <path class="st0" d="M64.8,20.9c0.6-0.5,0.9-0.7,1.3-0.7c0.1,0,0.1,0,0.2,0v-0.7c-0.5,0.1-1,0.4-1.5,0.9V16h-0.2l-2.3,0.1v0.3 c0.5,0.1,0.8,0.4,0.8,0.8v8.1c0.9,0.2,1.7,0.2,2.7,0.2h0.4v-0.5c-0.2,0.1-0.4,0.1-0.6,0.1c-0.7,0-0.9-0.3-0.9-1V20.9z"></path> <path class="st0" d="M73.4,19.9c0.7,0,1.1,0.8,1.2,1.8h-1.2V22h3c-0.2-1.5-1.4-2.5-2.9-2.5h-0.1V19.9z"></path> <path class="st0" d="M73.4,25.5v-0.9c0.2,0.1,0.5,0.2,0.8,0.2c0.8,0,1.5-0.4,2-1.2h0.3C75.9,24.8,74.7,25.5,73.4,25.5L73.4,25.5z"></path> <path class="st0" d="M72.1,21.7c0.1-1.1,0.5-1.8,1.2-1.8h0v-0.4c-1.7,0.1-3,1.4-3,3.1c0,1.7,1.3,3,3,3v-0.9 c-0.7-0.4-1.3-1.2-1.2-2.6h1.2v-0.3H72.1z"></path> <path class="st0" d="M60.2,34.4c0.7,0,1.1,0.7,1.2,1.8h-1.2v0.3h3C63,35,61.9,34,60.3,34h-0.1V34.4z"></path> <path class="st0" d="M60.2,39.9V39c0.2,0.1,0.5,0.2,0.7,0.2c0.8,0,1.5-0.4,2-1.2h0.2C62.7,39.2,61.6,39.9,60.2,39.9L60.2,39.9z"></path> <path class="st0" d="M59,36.1c0.1-1,0.5-1.8,1.2-1.8h0V34c-1.7,0-3,1.3-3,3c0,1.7,1.3,2.9,3,2.9V39c-0.7-0.4-1.3-1.2-1.2-2.6h1.2 v-0.3H59z"></path> <path class="st0" d="M81.8,21.7c-0.5-0.5-0.9-0.7-1.3-0.7c-0.5,0-0.8,0.2-1.3,0.8V24c0,0.7,0.1,0.9,1,1v0.2h-3.6v-0.2 c0.7-0.2,0.9-0.4,0.9-1v-3c0-0.7-0.3-1-1-1.1v-0.3l2.5-0.2h0.3v1.8h0c0.6-1.2,1.2-1.8,1.9-1.8c0.4,0,0.7,0.2,1,0.5L81.8,21.7z"></path> <path class="st0" d="M83.4,36.1c-0.5-0.5-0.9-0.7-1.3-0.7c-0.5,0-0.8,0.2-1.2,0.8v2.3c0,0.7,0.1,0.9,1,1v0.3h-3.6v-0.3 c0.7-0.2,0.9-0.4,0.9-1v-2.9c0-0.7-0.3-1-1-1.1v-0.3l2.5-0.2h0.3v1.8h0c0.6-1.2,1.2-1.8,1.9-1.8c0.4,0,0.7,0.2,1,0.5L83.4,36.1z"></path> <path class="st0" d="M91.2,19.7V20c0.7,0.1,0.9,0.6,0.4,1.8l-0.8,1.8l-1.2-2.4c-0.4-0.7-0.4-1,0.3-1.1v-0.3h-3.2h-0.1H85v-2.2h-0.3 c-0.8,1-1.7,1.9-2.4,2.3v0.3h1v3.6c0,1.3,0.9,1.8,1.9,1.8c0.8,0,1.4-0.3,1.8-1l-0.2-0.2c-0.3,0.3-0.5,0.4-0.8,0.4 c-0.8,0-1-0.5-1-1.4v-3.2h1.5c0.8,0,1.1,0.3,1.4,1.1l2.1,4.3c-0.7,1.8-1.3,2.6-2.3,2.6c-0.2,0-0.4,0-0.8-0.1l-0.3,1.7 c0.2,0,0.3,0,0.5,0c1.2,0,1.8-0.5,2.4-1.9l2.8-6.5c0.4-1,0.6-1.2,1.3-1.4v-0.3H91.2z"></path> <path class="st0" d="M48.6,20.7c-0.1-0.1-0.3,0-0.3,0L45,21.9c-0.3-0.6-0.6-1.2-0.9-1.8l1.1-2.9c0,0,0.1-0.3,0-0.4 c-0.1-0.1-0.3,0.1-0.3,0.1l-2,1.6c-0.8-0.8-1.6-1.5-2.7-1.9c-0.4-0.2-0.8-0.3-1.2-0.4l-0.6-2.3c0,0-0.1-0.2-0.2-0.2 S38,13.8,38,13.8l-0.4,2.1c-0.4-0.1-0.9-0.1-1.3-0.1c-1.5,0-2.7,0.3-3.9,0.8c-0.5,0.2-0.9,0.5-1.4,0.8c-0.1,0.1-0.1,0.1-0.2,0.2 c-0.4-1-0.7-1.9-0.8-2.1c0.2-0.2,0.7-0.9,0.8-1.4c0.2-0.7,0.1-1-0.1-1.6c-0.1-0.4-0.4-0.7-0.4-1c0-0.2,0.1-0.3,0.2-0.4 c-0.1-0.3-0.2-0.4-0.4-0.4c-0.2,0-0.3,0-0.5,0c-0.1-0.1-0.1-0.1-0.1-0.3c0.1-0.4,0.9-0.6,1.5-0.8c0.8-0.3,1.2-0.9,1.3-1.8 c0-0.7-0.4-1.2-0.8-1.4c-0.1,0.3-0.5,0.6-0.7,0.8c-0.3,0.1-0.6,0.2-0.9,0.1c0.1-0.5-0.2-0.9-0.5-1.1c-0.1,0.2-0.5,0.5-1.2,0.5 c-0.7,0-0.7-0.2-1.6-0.2c-1.3,0-2.4,0.8-2.5,1.9c-0.1,0.7,0.2,1.4,0.4,1.7c-0.2,0.1-0.5,0.5-0.6,0.6c-0.1-0.1-0.3-0.3-0.7-0.1 c0.1,0.2,0.1,0.4,0,0.6c-0.1,0.2-0.5,1.1-0.6,1.8c-0.1,1.3,0.6,2.1,1.2,2.4c-0.1,0.2-0.2,0.4-0.1,0.6c0.1,0.1,0.2,0.2,0.4,0.2 c-0.1,0.2-0.2,0.4-0.1,0.7c0.1,0.3,0.4,0.7,0.7,0.7c0,0.2,0.1,0.8,0.1,1c-0.1,0.2-0.2,0.3-0.2,0.6c0,0.4,0.2,0.6,0.5,0.7 c0.1,0.2,0.1,0.4,0.2,0.4c0.1,0.1,0.2,0.2,0.4,0.4c0.2,0.1,0.4,0.3,0.7,0.3c0.3,0,0.5,0,0.6,0c0,0.1,0,0.8,0.1,1.6 c-0.7,1.9-1,4.1-1,6.5c0,4.2,1.2,8,3.5,10.4c0,0,0.1,0.2,0.5,0.4c0,0,0.7-1.2,1.8-2.6c0.3-0.4,0.6-0.7,0.9-1 c0.5-0.5,1.1-0.9,1.6-1.2c1.4-1,3.1-1.7,4.6-2c-1.7,0.9-2.7,1.4-4.3,2.8c-1,0.9-2.7,2.4-3.8,4.6c0.2,0.2,0.6,0.4,0.9,0.4 c0.2-0.3,1.5-2.5,3.3-4.3c3.8-3.5,8.3-4.4,10.6-4.3c0.1-1,0.2-2,0.2-3c0-1.7-0.2-3.3-0.5-4.8l2.8-3.1C48.5,21,48.7,20.8,48.6,20.7"></path> <path class="st1" d="M27.8,19.2c-0.2-0.1-0.6-0.3-1-0.3c-0.4,0-0.7,0.1-1,0.3c-0.1-0.1-0.2-0.2-0.1-0.4c0.1-0.2,0.2-0.2,0.2-0.2 l-0.1-1.8c0,0,0.5-0.4,0.6-0.4c0.1,0,0.2-0.1,0.2-0.3c0.2,0.1,0.6,0.5,0.7,0.7c0.2,0.2,0.3,0.5,0.3,0.8c0,0.3,0,0.6-0.1,1 c0.1,0.1,0.2,0.2,0.2,0.3C27.9,19.1,27.8,19.1,27.8,19.2"></path> <path class="st1" d="M43.9,24.8c0-0.3-0.4-1.3-0.7-1.5l4.2-1.9L43.9,24.8z"></path> <path class="st1" d="M32.4,17.8L36,21c-0.4,0.2-0.9,0.7-1,1.1L32.4,17.8z"></path> <path class="st1" d="M34.5,24.2c-0.1,0.2-0.2,0.3-0.2,0.5c-0.1,0.2,0,0.4,0,0.5l-1.1-0.7c0-0.3-0.1-0.7-0.1-0.9c0,0,0-0.1,0-0.1 L34.5,24.2z"></path> <path class="st1" d="M28.5,24.5c-0.1-0.1-0.4-6.7-0.4-6.9l0.4-0.3v-0.1c-0.3,0-0.6-0.1-0.7-0.3l-0.1-2c-0.4,0-0.7-0.1-0.9-0.3 c-0.2-0.2-0.3-0.4-0.1-0.7c0.2,0.1,0.7,0.3,1.1,0.3c0.1,0,0.3,0.2,0.4,0.3c0.1,0,0.4,0.2,0.4,0.2c0.1,0,0.1,0.3,0.2,0.3 c0,0.1,3.3,8.5,3.3,8.6c0,0.1,0.2,1.5,0.2,1.6c0,0.1,0.5,1.3,0.6,1.4c-0.4,0-1.1,0.2-1.7,0.8c-0.6,0.6-1.1,1.8-1.2,2.3 C30.1,29.5,28.5,24.6,28.5,24.5"></path> <path class="st1" d="M32.6,32.6c-0.1,1.3-0.5,2.4-0.9,3.2c-0.3,0.5-1.2,1.6-1.5,2c0.3-0.7,0.6-2.2,0.6-3.4c0-0.8-0.3-2.5,0-3.7 c0.2-1.2,0.6-1.9,1.4-2.7c0.4-0.4,1.3-0.9,2.5-0.6l1,1.9c-0.5-0.1-1.2,0-1.7,0.4C33,30.3,32.8,31.3,32.6,32.6"></path> <path class="st1" d="M32.7,35.2c0.2-0.5,0.6-2.1,0.7-2.6c0.1-0.7,0.2-1.6,1-2.3c0.4-0.3,1-0.4,1.3-0.3l1.1,2.3 c0.1,0.2,0.4,0.3,0.7,0.3C36.4,32.9,33.7,34.2,32.7,35.2"></path> <path class="st1" d="M42.3,27.8c-0.2,0.3-0.1,0.6,0,0.8c0.1,0.2,0.7,1.3,0.7,1.3c0.2,0.5,0.3,0.8,0.5,1.1h1 c-0.4-0.9-1.3-2.6-1.3-2.6L43.2,27C43,27.1,42.5,27.5,42.3,27.8"></path> <path class="st1" d="M37.5,20.5c0.4-0.1,1.5,0,1.8,0.2l-1-5.8L37.5,20.5z"></path> <path class="st1" d="M35.3,22.9c-0.1,0.4-0.1,0.8,0,1c-0.3,0.2-0.4,0.4-0.4,0.7c0,0.2,0,0.5,0.2,0.7c0-0.3,0.2-0.6,0.3-0.8 c0.2-0.2,0.4-0.3,0.7-0.4l0,0.5c-0.2,0.1-0.5,0.4-0.5,0.6l0,0.8l0.6-0.4l0.1,0.2l-0.2,1.4l0.3-0.1l0.6,0.2L36.4,28v0.2 c0,0,0.1-0.1,0.3-0.1c0.2,0,0.8,0.2,0.8,0.2l0,0.1h-0.2h-0.8c0,0.1,0.1,0.3,0.2,0.3c0.1,0,0.3-0.1,0.4-0.1c0.1,0,0.3,0,0.4,0.1 L37.2,29c0,0-0.1,0.1-0.3,0c-0.1,0-0.2,0.1-0.2,0.2c0,0.1,0.1,0.4,0.1,0.4c0.1,0.5,0.6,0.4,0.6,0.4c0.3,0,1.3-0.4,1.3-0.4L37.7,31 l0.4,1.4c0.6-0.3,2.4-0.9,4.4-1.2c-0.2-0.4-0.3-0.5-0.5-1l-1-2.3l0.1-0.3c0.2,0.1,0.6-0.1,0.8-0.3c0.2-0.2,0.5-0.5,0.6-0.7 c-0.1-0.1-0.3-0.1-0.4,0c-0.1,0.1-0.2,0.2-0.4,0.2c-0.2-0.1-0.1-0.3-0.1-0.5c0-0.2-0.2-0.2-0.4,0c-0.2,0.1-0.5,0.1-0.7-0.2 c-0.2-0.2-1.3-1.1-1.7-1.3c-0.5-0.3-1.3-0.4-1.8-0.3c-0.3,0.1-0.5,0.2-0.7,0.1L36,23.8l0.1,0c0.1,0.1,0.3,0.2,0.5,0.1 c0.2-0.1,0.8-0.2,1.3-0.2c0.8,0,1.8,0.3,2.2,0.5c0,0.5,1.1,1.2,1.6,1.2c0.4,0.1,0.7-0.1,0.9-0.2l-1-0.9l0.6-0.7c0,0,0.9,0.8,1,1 c0-0.1,0-0.3,0-0.4c-0.1-0.3-0.7-1-1.8-1.9C40.3,21.7,39,21,38,21C36.2,21.1,35.4,22.3,35.3,22.9"></path> <path class="st1" d="M28.9,15c0-0.1-0.1-0.3-0.2-0.3c-0.1,0-0.3-0.2-0.4-0.2c-0.1-0.1-0.3-0.3-0.4-0.3c-0.4,0-1-0.1-1.1-0.3 c-0.2,0.4-0.1,0.6,0.1,0.7c0.1,0.1,0.5,0.2,0.9,0.3l0.1,2c0.1,0.1,0.4,0.2,0.7,0.3v0.1l-0.4,0.3c0,0.2,0.3,6.8,0.4,6.9 c0.1,0.1,1.7,5,1.7,5.3c0.1-0.6,0.6-1.8,1.2-2.3c0.6-0.6,1.3-0.8,1.7-0.8c-0.1-0.1-0.6-1.2-0.6-1.4c0-0.1-0.2-1.5-0.2-1.6 C32.2,23.6,28.9,15.1,28.9,15"></path> <path class="st1" d="M26.8,13.4c0.9,0,1.4,0.4,1.6,0.6c0-0.3,0-0.6-0.3-0.8c-0.2-0.2-0.7-0.4-1.3-0.4c-0.4,0-0.9,0.1-1.1,0.4 c-0.2,0.2-0.3,0.4-0.2,0.8C25.5,13.7,26,13.4,26.8,13.4"></path> <path class="st1" d="M25.2,8.6c0,0.4,0.1,0.7,0.2,0.9c0.1,0.1,0.3,0.4,0.5,0.4c0.2,0,0.4-0.4,1-0.4c0.3,0,0.6,0.5,0.9,0.5 c0.2,0,0.4-0.2,0.6-0.2c0.2,0,0.3,0.1,0.4,0.2c0.1-0.2,0.2-0.3,0.5-0.5c0.4-0.3,1.6-0.5,2.1-1c0.3-0.2,0.3-0.7,0.2-1 c-0.2,0.3-0.7,0.6-1.3,0.6c-0.3,0-0.9-0.1-1.2-0.2c0.1-0.2,0.1-0.4,0.1-0.7C29,7.3,28.3,7.4,28,7.4c-0.3,0-0.9-0.1-1.3-0.1 C25.6,7.3,25.2,8.1,25.2,8.6"></path> <path class="st1" d="M26.9,11.7c2.1,0,3.1,1,3.1,1.8c0.1-0.2,0.1-0.5,0.1-0.7c0-0.2-0.3-0.8-0.4-1c0-0.2,0.1-0.3,0.1-0.5 c-0.1,0-0.6,0.2-0.8,0.1c-0.2-0.2-0.1-0.6-0.4-0.7c-0.3-0.1-0.7,0.2-1,0.2c-0.3,0-0.5-0.4-0.8-0.4c-0.3,0-0.4,0.4-0.8,0.4 c-0.3,0.1-0.6-0.1-0.8-0.1c-0.2,0-0.3,0.1-0.4,0.3c-0.1,0.2-0.1,0.3-0.4,0.3c-0.2,0-0.4-0.1-0.5-0.1c0.1,0.1,0.1,0.5,0.1,0.7 c-0.1,0.3-0.3,0.6-0.4,0.9c0,0.3,0.1,0.5,0.1,0.7C23.7,12.4,25,11.7,26.9,11.7"></path> <path class="st1" d="M25.5,15.8c-0.1,0-0.5,0.3-0.6,0.5c0,0.1,0.2,0.5,0.4,0.6c0-0.2,0.2-0.5,0.3-0.5c0.1-0.1,0.3-0.2,0.4-0.2 c0.1-0.1,0.1-0.1,0.1-0.2c0-0.1,0-0.2-0.1-0.3c0.1,0,0.3,0,0.4-0.1c0.1-0.1,0.1-0.2,0.1-0.4c0-0.1-0.1-0.1-0.2-0.1 c-0.1,0-0.5,0-0.7,0c0,0,0.3-0.1,0.4-0.2c0.1,0,0.1-0.1,0.1-0.2c0-0.1,0-0.2,0-0.4c-0.4,0-1.1,0.4-1.3,0.5l0.1,0.4h-0.3 c-0.1,0.2,0,0.5,0.1,0.6C25,15.8,25.3,15.8,25.5,15.8"></path> <path class="st0" d="M35.7,23.7c0.2-0.2,0.6-0.5,0.9-0.7l-0.3-0.8C36,22.5,35.5,23.1,35.7,23.7"></path> <path class="st0" d="M37.1,22.9c0.4-0.1,1.5-0.1,1.8,0.1l0.2-1.1c-0.3-0.2-0.8-0.3-1.2-0.3S37,21.8,36.8,22L37.1,22.9z"></path> <path class="st0" d="M41,24l0.5-0.7c-0.2-0.2-1.4-0.9-1.7-1.1l-0.4,1C39.7,23.3,40.6,23.7,41,24"></path> <path class="st0" d="M36.8,25.7c0.2,0.1,0.4,0.3,0.6,0.5l0.3-0.1l-0.1-0.2c0,0,0.2-0.1,0.4-0.1c0.3,0,0.5,0,0.7,0.2l0.7-0.2 l0.1-0.1c-0.5-0.4-1.2-0.7-1.8-0.6c-0.4,0.1-0.9,0.3-0.9,0.3V25.7z"></path> <path class="st1" d="M40.9,21.3c0.4,0.1,1.3,0.9,1.5,1l2.1-4.6L40.9,21.3z"></path> <path class="st2" d="M90.2,28.3h7.1 M51.6,28.3h34.1"></path> <path class="st0" d="M53.7,39.8c-0.5,0-1.4-0.2-1.8-0.3c-0.1,0.1-0.2,0.1-0.2,0.3c-0.2,0-0.4,0-0.4,0v-2.5h0.3c0.3,0.9,1,2,2.1,2 c1,0,1.6-0.4,1.6-1c0-1.1-1.1-1.7-2-2.1c-1-0.5-2-1.3-2-2.6c0-1.5,1.1-2.7,3-2.5c0.5,0.1,0.7,0.2,1.3,0.2c0.2,0,0.2-0.2,0.2-0.2 h0.3v2.2c0,0-0.1,0-0.3,0c-0.2-0.7-0.8-1.7-1.8-1.7c-0.9,0-1.5,0.4-1.5,1.1c0,0.6,0.9,1.3,1.6,1.7l0.9,0.5c0.8,0.6,1.5,1,1.5,2.6 C56.8,39,55.8,39.8,53.7,39.8"></path> <path class="st0" d="M93,39.8c-0.8,0-0.7-0.2-1.3-0.2c-0.1,0-0.3,0.1-0.3,0.1h-0.3v-2.1h0.3c0.2,0.6,0.7,1.5,1.5,1.7 c0.8,0.1,1.2-0.2,1.2-0.7c0-0.7-0.9-1-1.5-1.3c-0.7-0.3-1.6-0.6-1.6-1.8c0-1,0.9-1.7,2.3-1.5c0.3,0,0.6,0.1,1,0.1 c0.1,0,0.2-0.1,0.2-0.1h0.4l0,1.7h-0.3c-0.2-0.5-0.6-1.2-1.4-1.3c-0.7,0-1,0.2-1,0.7c0,0.4,0.5,0.6,1.3,0.9c1,0.3,2,0.9,1.7,2.3 C95,39.2,94.5,39.9,93,39.8"></path> <path class="st0" d="M77,38.2c0,1.2,0.9,1.1,0.9,1.1l0,0.4c0,0-1.4,0-2.6,0.1c0-0.2,0-0.8,0-1c0-0.1,0-0.1-0.1-0.1 c-0.2,0.2-0.6,1.2-2.1,1.1c-1.2,0-1.7-0.6-1.7-1.8c0,0,0-1,0-2.4c0-1.3-0.9-1.1-0.9-1.1v-0.4c0,0,1-0.1,1.6-0.1 c0.5,0,0.9-0.1,1-0.1c0,0.5,0,0.9,0,1.4v2.3c0,0.7,0.1,1.2,1,1.2c0.4,0,0.6-0.2,0.7-0.3c0.1-0.1,0.4-0.5,0.4-0.6v-2.6 c0-0.8-0.8-0.8-0.8-0.8l0-0.3c0,0,1.8,0,2.4-0.2C77,34.7,77,38.2,77,38.2"></path> <path class="st0" d="M87.3,34.5c1,0.1,1.5,1.4,1.4,2.8c-0.1,1.3-0.5,2.2-1.5,2.2v0.4c1.8,0,3.4-1,3.4-3c0-2-1.6-2.9-3.3-2.9h-0.1 v0.5H87.3z"></path> <path class="st0" d="M87.2,39.5L87.2,39.5c-1.1-0.1-1.6-1.3-1.5-2.8c0.1-1.5,0.7-2.1,1.5-2.1V34c-1.7,0-3.4,1.1-3.3,3.1 c0,1.9,1.5,2.9,3.3,2.9h0V39.5z"></path> <path class="st0" d="M67.8,39.5c-0.3,0-0.7,0-1.2-0.1v1.4c0.1,0,0.3,0,0.5,0c1.2,0.2,2.1,0.8,2.1,1.3c-0.1,0.6-1.1,0.9-2.3,0.7 c-0.1,0-0.1,0-0.2,0v1h0c0.8,0,2.1-0.2,2.7-0.8c0.4-0.4,0.7-0.9,0.7-1.3v-0.5C70,40.3,69,39.6,67.8,39.5"></path> <path class="st0" d="M66.6,38.4c2.1,0,2.9-1.1,2.8-2.1c-0.1-0.9-0.5-1-0.6-1.1h1.2v-1c0,0-1.9,0-2.3,0c-0.4-0.1-0.8-0.2-1.2-0.2 v0.5c0.7,0,1.2,0.6,1.2,1.8c0,1.1-0.5,1.6-1.1,1.6c0,0-0.1,0-0.1,0V38.4z"></path> <path class="st0" d="M66.6,39.4c-0.7,0-1.4-0.2-1.4-0.6c-0.1-0.4,0.9-0.5,1.1-0.5c0.1,0,0.2,0,0.3,0v-0.5c-0.7-0.1-1.2-0.8-1.2-1.9 c0-1,0.6-1.5,1.2-1.5h0V34h-0.1c-1.8,0-2.7,1.1-2.7,2.3c0,1.3,0.9,1.6,1.6,1.9c0.1,0.1-0.1,0.1-0.3,0.2c-0.1,0-1.3,0.1-1.3,1.1 c0,1,0.9,1,1.4,1.2c0.1,0,0.1,0.1-0.1,0.1c-0.2,0-0.7,0.2-1,0.4c-0.6,0.3-0.7,0.8-0.7,1.2c0,0.9,1.2,1.6,3.2,1.6v-1 c-1.1-0.2-1.9-0.8-1.8-1.3c0.1-0.5,0.8-0.8,1.8-0.8V39.4z"></path> </g> </svg>