<svg xmlns="http://www.w3.org/2000/svg" xmlns:xlink="http://www.w3.org/1999/xlink" id="Capa_1" x="0px" y="0px" viewBox="0 0 120 50" style="enable-background:new 0 0 120 50;" xml:space="preserve"> <style type="text/css"> .st0{fill-rule:evenodd;clip-rule:evenodd;fill:#004B93;} .st1{fill:#004B93;} </style> <g> <path class="st0" d="M20.8,31.2l1-3.3h3.9l0.9,3.3h3.6l-3.6-12.6c-0.2-0.7-0.7-1.1-1.4-1.1h-5.1v1.2h0.4c0.5,0,0.8,0.2,0.8,0.6 c0,0.3-0.1,0.5-0.3,1.1l-3.6,10.8H20.8 M25.2,25.6h-2.9l1.5-5L25.2,25.6z"></path> <path class="st1" d="M34.4,31.2V18.5c0-0.7-0.4-1-1-1h-3.2v1.2h0.2c0.5,0,0.8,0.2,0.8,0.8v11.8H34.4"></path> <path class="st1" d="M39.9,31.2V18.5c0-0.7-0.4-1-1-1h-3.2v1.2h0.2c0.5,0,0.8,0.2,0.8,0.8v11.8H39.9"></path> <path class="st0" d="M45.5,31.2v-9.2c0-0.7-0.4-1.1-1-1.1h-3.1v1.2h0.2c0.5,0,0.8,0.2,0.8,0.8v8.3H45.5 M45.6,18.7 c0-0.9-0.7-1.5-1.8-1.5c-1.2,0-1.9,0.6-1.9,1.5c0,0.9,0.7,1.5,1.9,1.5C44.9,20.2,45.6,19.6,45.6,18.7z"></path> <path class="st0" d="M48.3,23.8c1.1-0.5,2.2-0.8,3.2-0.8c0.9,0,1.2,0.3,1.2,1.2v0.2c-1.3,0.2-1.7,0.3-2.5,0.5 c-0.4,0.1-0.8,0.2-1.2,0.4c-1.3,0.5-1.9,1.5-1.9,3.1c0,2,0.8,2.9,2.6,2.9c0.6,0,1.2-0.1,1.7-0.3c0.5-0.2,0.7-0.4,1.4-0.9v0.1 c0,0.6,0.3,1,1,1h2.9v-1.1h-0.1c-0.6,0-0.8-0.2-0.8-0.9v-4.9c0-2.6-0.9-3.5-3.5-3.5c-0.8,0-1.7,0.1-2.5,0.3 c-0.8,0.2-1.2,0.3-2.2,0.8L48.3,23.8 M52.6,26.2v2c-0.5,0.6-1.2,0.9-1.7,0.9c-0.6,0-0.8-0.3-0.8-1.1c0-0.8,0.2-1.1,0.7-1.3 C51.2,26.5,51.8,26.4,52.6,26.2z"></path> <path class="st0" d="M61.3,31.2v-7c0.5-0.6,1.1-0.9,1.7-0.9c0.7,0,0.8,0.3,0.8,1.3v6.5h3.2v-7c0-1.6-0.1-2.1-0.6-2.7 c-0.4-0.5-1.1-0.7-1.9-0.7c-1.3,0-2.1,0.4-3.3,1.5v-0.4c0-0.6-0.3-1-1-1h-3.1v1.2h0.2c0.5,0,0.8,0.2,0.8,0.8v8.3H61.3"></path> <path class="st1" d="M76.6,29h-4.5l4.3-6v-2.1h-6.7c-0.8,0-1.1,0.4-1.1,1.1v1.9h1.2v-0.2c0-0.5,0.2-0.7,0.8-0.7h2.3l-4.3,6.1v2.1 h8.1V29"></path> <path class="st0" d="M102.5,25c0-6-4.5-10.5-10.5-10.5c-6,0-10.5,4.5-10.5,10.5c0,6,4.5,10.5,10.5,10.5C98,35.5,102.5,31,102.5,25 M100.7,25c0,5.1-3.7,8.9-8.8,8.9c-5.1,0-8.8-3.7-8.8-8.9c0-5.1,3.7-8.9,8.8-8.9C97,16.1,100.7,19.9,100.7,25z M89.1,30.9V20.6 h-1.8c-0.9,0-1.2,0.3-1.2,1.2v9.1H89.1z M94.8,30.9h3v-9.1c0-0.9-0.4-1.2-1.2-1.2h-1.8V30.9z M93.5,30.9V19.3 c0-0.9-0.3-1.2-1.2-1.2h-2.7v1.3h0.2c0.6,0,0.7,0.1,0.7,0.9v10.7H93.5z"></path> </g> </svg>