<svg xmlns="http://www.w3.org/2000/svg" xmlns:xlink="http://www.w3.org/1999/xlink" id="Capa_1" x="0px" y="0px" viewBox="0 0 120 50" style="enable-background:new 0 0 120 50;" xml:space="preserve"> <style type="text/css"> .st0{fill:#573A66;} .st1{fill:#724E86;} .st2{fill:#8A5EA4;} .st3{fill:#006D73;} .st4{fill:#00A4AF;} .st5{fill:#B70E0C;} .st6{fill:#E30613;} </style> <g> <path d="M20.5,19.8v5h0c0.7-0.9,1.5-1.4,2.7-1.4c2.1,0,3.2,1.4,3.2,3.6v5.2h-3v-4.3c0-1-0.1-2-1.4-2c-1.2,0-1.6,1-1.6,2v4.3h-3 V19.8H20.5z"></path> <path d="M36.6,28.5h-6.3c0,1.2,0.6,1.9,1.9,1.9c0.6,0,1.1-0.2,1.4-0.8h2.9c-0.5,2-2.4,2.9-4.3,2.9c-2.8,0-4.9-1.6-4.9-4.5 c0-2.8,1.9-4.5,4.7-4.5c2.9,0,4.6,1.8,4.6,4.7V28.5z M33.8,26.8c-0.1-0.8-0.9-1.3-1.7-1.3c-0.9,0-1.6,0.5-1.8,1.3H33.8z"></path> <rect x="37.5" y="19.8" width="3" height="12.4"></rect> <polygon points="46.2,28.1 48.2,23.7 51.6,23.7 47.2,32.2 45.3,32.2 40.8,23.7 44.2,23.7 "></polygon> <path d="M60.2,28.5h-6.3c0,1.2,0.6,1.9,1.9,1.9c0.6,0,1.1-0.2,1.4-0.8h2.9c-0.5,2-2.4,2.9-4.3,2.9c-2.8,0-4.9-1.6-4.9-4.5 c0-2.8,1.9-4.5,4.7-4.5c2.9,0,4.6,1.8,4.6,4.7V28.5z M57.4,26.8c-0.1-0.8-0.9-1.3-1.7-1.3c-0.9,0-1.6,0.5-1.8,1.3H57.4z"></path> <polygon points="64.6,32.2 61.6,32.2 61.6,26.2 60.7,26.2 60.7,23.7 61.6,23.7 61.6,21.2 64.6,21.2 64.6,23.7 66.4,23.7 66.4,26.2 64.6,26.2 "></polygon> <path d="M70.2,21.1c0,0.9-0.8,1.7-1.7,1.7c-0.9,0-1.7-0.8-1.7-1.7s0.8-1.7,1.7-1.7C69.4,19.4,70.2,20.1,70.2,21.1 M70,32.2h-3v-8.5 h3V32.2z"></path> <path d="M80.7,32.2h-3v-0.9h0c-0.5,0.8-1.6,1.2-2.6,1.2c-2.5,0-4.3-2.1-4.3-4.5c0-2.4,1.7-4.5,4.3-4.5c1,0,2,0.4,2.6,1.1v-0.8h3 V32.2z M74,28c0,1.1,0.7,1.9,1.9,1.9c1.2,0,1.9-0.8,1.9-1.9c0-1-0.7-1.9-1.9-1.9C74.7,26.1,74,26.9,74,28"></path> <polygon class="st0" points="91.5,28.7 87.6,29.6 90.6,22.7 94.5,21.8 "></polygon> <polygon class="st1" points="90.4,15.9 94.3,15 95.9,18.6 92,19.5 "></polygon> <polygon class="st2" points="84.7,29.2 90.4,15.9 92,19.5 87.6,29.6 "></polygon> <polygon class="st3" points="87.6,29.6 91.5,28.7 97.9,29.7 94.1,30.8 "></polygon> <polygon class="st4" points="95.7,34.4 83.4,32.2 84.7,29.2 94.1,30.8 "></polygon> <polygon class="st5" points="92,19.5 95.9,18.6 102.5,33.9 98.7,35 "></polygon> <polygon class="st6" points="90.6,22.7 92,19.5 98.7,35 95.7,34.4 "></polygon> </g> </svg>