<svg xmlns="http://www.w3.org/2000/svg" xmlns:xlink="http://www.w3.org/1999/xlink" id="Capa_1" x="0px" y="0px" viewBox="0 0 120 50" style="enable-background:new 0 0 120 50;" xml:space="preserve"> <style type="text/css"> .st0{fill:#81D200;} </style> <g> <ellipse class="st0" cx="28.3" cy="20" rx="2.1" ry="1.1"></ellipse> <rect x="26.3" y="22" class="st0" width="4.2" height="8.5"></rect> <path class="st0" d="M22.6,29.9c-0.7,0.4-1.5,0.4-1.9,0.4v-8.5c0.3,0,1.1,0,1.9,0.4c1.1,0.6,1.8,1.7,2,1.4c0.2-0.3-0.4-1.2-1.4-1.7 c-0.8-0.5-2-0.5-2.4-0.6v0c0,0,0,0,0,0c-0.1,0-0.1,0-0.1,0v0c-2.6,0.1-4.7,2.2-4.7,4.8c0,2.7,2.2,4.8,4.8,4.8v-0.1 c0.4,0,1.6-0.1,2.4-0.6c1-0.6,1.6-1.5,1.4-1.7C24.4,28.2,23.7,29.4,22.6,29.9z"></path> <path class="st0" d="M36.9,19.5l-4.2,1.6v0.9h-1.4v0.6h1.4v5.5c0,0,0,2.5,2.4,2.5c2.3,0,3-0.4,4.1-2c0,0-0.1-1.1-0.6-0.4 c-0.5,0.8-0.9,1.2-1.7,1.4v-7.3h1.8c0,0,4.6,5.8,4.6,6.5s-0.6,1-1,1.1s-1.3-0.7-1.7-0.4c-0.3,0.3,0.3,1.3,1.7,1s4.8-5.7,5.8-7 c1-1.3,1.3-2,0.6-1.9s-3,3.6-3,3.6l-2.3-3.4h-6.5L36.9,19.5z"></path> <path d="M66.8,22C66.8,22,66.8,22,66.8,22c-0.5-0.4-1.5-0.7-2.8-0.7c-1.3,0-3.1,1.2-3.1,1.2l0,0c-0.1-0.2-0.3-0.3-0.5-0.4l0,0 c-0.9-0.7-2-0.7-3.1-0.7s-2.6,1.2-2.6,1.2v-0.6h-4.2v8.8h4.2v-7.5c1-0.7,2.3-1.3,2.3-1.3v8.8h4.2v-7.3c0.6-1.2,2.3-1.5,2.3-1.5v8.8 h4.2v-7.3C67.6,22.7,67.3,22.2,66.8,22z"></path> <path d="M73.7,21.3c-2.6,0-4.7,2.1-4.7,4.7c0,2.6,2.1,4.7,4.7,4.7c2.6,0,4.7-2.1,4.7-4.7C78.3,23.4,76.3,21.3,73.7,21.3z M73.7,30.2v-8.4c2.3,0,4.2,1.9,4.2,4.2S76,30.2,73.7,30.2z"></path> <path d="M91.1,21.3c-2.6,0-4.7,2.1-4.7,4.7c0,2.6,2.1,4.7,4.7,4.7c2.6,0,4.7-2.1,4.7-4.7C95.7,23.4,93.7,21.3,91.1,21.3z M91.1,30.2v-8.4c2.3,0,4.2,1.9,4.2,4.2S93.4,30.2,91.1,30.2z"></path> <path d="M103.1,23c0,0-2.4-2.1-2.9-0.7c-0.5,1.3,3.2,3.2,3.7,4.6c0.5,1.4,0.1,3.4-2.3,3.7c-2.4,0.4-4.2-0.4-4.4-1 c-0.3-0.6,1.7,0.4,2.5,0.6s2.2,0.2,0.9-0.8c-1.3-1.1-3.2-3.1-3.5-5.3s1.9-2.9,3.9-2.8c1.9,0.1,2.9,0.9,3.1,1.4 C104.2,23.2,103.9,23.6,103.1,23z"></path> <path d="M85.7,28.7c-0.5,0.8-0.9,1.2-1.7,1.4v-7.3h1.8c0,0,0,0,0.1,0.1l-0.1-0.6H84l0-2.4l-4.2,1.6v0.9h-1.4v0.6h1.4v5.5 c0,0,0,2.5,2.4,2.5c2.3,0,3-0.4,4.1-2C86.3,29.1,86.2,28,85.7,28.7z"></path> </g> </svg>