<svg xmlns="http://www.w3.org/2000/svg" xmlns:xlink="http://www.w3.org/1999/xlink" id="Capa_1" x="0px" y="0px" viewBox="0 0 120 50" style="enable-background:new 0 0 120 50;" xml:space="preserve"> <style type="text/css"> .st0{fill:#007368;} .st1{fill:#EE751B;} </style> <g> <path class="st0" d="M61.1,12.5c0-3.9-2.3-5.4-6.1-5.4c-2,0-3.6,0.3-5.4,0.8v3.6c1.8-0.8,3.4-1.1,5.1-1.1c1.6,0,2.6,0.8,2.6,2.1 v0.6c-6.2,0.2-8.8,2.8-8.8,6.1c0,3.2,2,5.1,6.1,5.1c2.4,0,3.9-0.5,6.7-0.5c-0.1-0.9-0.2-2.4-0.2-3.7C61,17.6,61.1,15.2,61.1,12.5z M57.1,20.3c-0.1,0.5-0.8,0.9-2.2,0.9c-1.5,0-2.5-0.9-2.5-2.1c0-1.9,1.6-2.8,4.8-2.9C57.3,18.2,57.2,19.8,57.1,20.3z M67.4,11.8 c0-0.8,0.8-1.4,2.2-1.4c1.1,0,2.3,0.2,3.9,0.8V7.6c-1.4-0.4-2.5-0.5-3.8-0.5c-3.9,0-6.3,2-6.3,5.1c0,4.8,6.9,4.4,6.9,7.1 c0,1.1-0.9,1.8-2.8,1.8c-1.1,0-2.7-0.2-4-0.7V24c1.4,0.4,2.8,0.6,4.3,0.6c4.6,0,6.5-2.6,6.5-5.4C74.3,14.1,67.4,14.4,67.4,11.8z M83.8,7.2c-4.6,0-7.9,3.3-7.9,8.5c0,6.1,3.5,8.8,8.5,8.8c1.2,0,2.8-0.1,4.3-0.6v-3.4c-1.3,0.6-2.8,0.7-4.1,0.7 c-2.7,0-4.5-1.7-4.5-4.4v-0.5h9.8c0.1-1,0.2-1.7,0.2-2.3C90,10.1,88.1,7.2,83.8,7.2z M85.2,13.2h-4.9c0.3-1.7,1.4-2.9,3.2-2.9 c1.7,0,2.5,0.9,2.5,2.2C86,13,85.8,13.2,85.2,13.2z M34.9,15.8c0,5.8,3.4,8.7,8.4,8.7c0.9,0,1.9-0.1,2.9-0.3v-3.4 c-0.8,0.1-1.6,0.2-2.7,0.2c-2.7,0-4.3-1.5-4.3-5.3c0-3.8,1.7-5.2,4.3-5.2c1.2,0,1.9,0.1,2.8,0.4V7.5c-0.9-0.2-1.8-0.3-2.9-0.3 C37.9,7.2,34.9,10.6,34.9,15.8z M99.9,7.1c-3.6,0-4.1,0.8-7.5,0.8v16.3h3.9V12c0-0.9,1-1.5,2.7-1.5c0.2,0,0.3,0,0.5,0 c0.8,0.1,2,0.2,3,0.5V7.5C101.7,7.2,100.8,7.1,99.9,7.1z"></path> <path class="st1" d="M27.5,23.2c1.6,0,4.7,0.3,6.1,0.9c-4.3-4.8-3.3-13,0-17.4c-9.3,2.8-16.1,9.9-16.1,20.1c0,0.2,0,0.4,0,0.7 C19.4,24,23.2,23.2,27.5,23.2z"></path> <g> <path class="st1" d="M41.2,32.5c0.5,0,1,0,1.6,0.2v1.5c-0.7-0.3-1.2-0.4-1.6-0.4c-0.6,0-0.9,0.2-0.9,0.6c0,1.1,2.9,0.9,2.9,3.1 c0,1.1-0.8,2.2-2.7,2.2c-0.6,0-1.2-0.1-1.8-0.2v-1.4c0.6,0.2,1.2,0.3,1.7,0.3c0.8,0,1.2-0.3,1.2-0.7c0-1.2-2.9-1-2.9-3 C38.6,33.3,39.6,32.5,41.2,32.5z"></path> <path class="st1" d="M45.8,36.3c0,0.1,0,0.2,0,0.2c0,1.1,0.8,1.8,1.9,1.8c0.5,0,1.2-0.1,1.7-0.3v1.4c-0.6,0.2-1.3,0.2-1.8,0.2 c-2.1,0-3.5-1.1-3.5-3.7c0-2.2,1.4-3.6,3.3-3.6c1.8,0,2.6,1.2,2.6,2.8c0,0.2,0,0.6-0.1,1H45.8z M48,35c0.2,0,0.3-0.1,0.3-0.3 c0-0.5-0.3-0.9-1-0.9c-0.8,0-1.2,0.5-1.3,1.2H48z"></path> <path class="st1" d="M55.1,39.4c-0.2,0.2-0.6,0.3-1.2,0.3c-1.5,0-3-1.2-3-3.5c0-2.4,1.5-3.7,3.3-3.7c1,0,1.6,0.2,2.6,0.2 c0,1.3,0,2.5,0,3.8v4c0,2-1.6,2.7-3.3,2.7c-0.5,0-1.1,0-1.8-0.2v-1.5c0.7,0.2,1.3,0.3,1.8,0.3c0.8,0,1.7-0.3,1.7-1.3V39.4z M54.2,38.3c0.5,0,0.9-0.2,0.9-0.5v-3.5c0-0.2-0.3-0.5-0.9-0.5c-1,0-1.6,0.7-1.6,2.3C52.6,37.7,53.2,38.3,54.2,38.3z"></path> <path class="st1" d="M62.5,37.7v-5h1.6v6.7c-1.4,0-1.6,0.3-3,0.3c-1.4,0-2.6-0.7-2.6-2.5v-4.6h1.6v4.4c0,0.9,0.5,1.2,1.3,1.2 C62.1,38.3,62.5,38.1,62.5,37.7z"></path> <path class="st1" d="M66,39.5v-6.8h1.5v0.6c0.4-0.6,1.1-0.9,1.8-0.9c0.3,0,0.5,0,0.7,0.1v1.7c-0.3-0.1-0.7-0.2-1.1-0.2 c-0.7,0-1.2,0.3-1.3,0.8c0,1.2,0,2.9,0,4.7H66z"></path> <path class="st1" d="M76.8,36.1c0,2.1-1.2,3.6-3.2,3.6c-1.9,0-3.1-1.5-3.1-3.6c0-2.2,1.3-3.6,3.1-3.6 C75.6,32.5,76.8,33.9,76.8,36.1z M72.3,36.1c0,1.5,0.6,2.2,1.4,2.2c0.8,0,1.4-0.7,1.4-2.2c0-1.5-0.6-2.2-1.5-2.2 C72.9,33.9,72.3,34.6,72.3,36.1z"></path> <path class="st1" d="M80.5,32.5c0.5,0,1,0,1.6,0.2v1.5c-0.7-0.3-1.2-0.4-1.6-0.4c-0.6,0-0.9,0.2-0.9,0.6c0,1.1,2.9,0.9,2.9,3.1 c0,1.1-0.8,2.2-2.7,2.2c-0.6,0-1.2-0.1-1.8-0.2v-1.4c0.6,0.2,1.2,0.3,1.7,0.3c0.8,0,1.2-0.3,1.2-0.7c0-1.2-2.9-1-2.9-3 C77.8,33.3,78.8,32.5,80.5,32.5z"></path> </g> </g> </svg>