<svg xmlns="http://www.w3.org/2000/svg" xmlns:xlink="http://www.w3.org/1999/xlink" id="Capa_1" x="0px" y="0px" viewBox="0 0 120 50" style="enable-background:new 0 0 120 50;" xml:space="preserve"> <style type="text/css"> .st0{fill:#EE2D24;} .st1{fill:#231F20;} .st2{fill:none;} </style> <g> <path class="st0" d="M59.8,22.6c0.4-3.8,2.5-6.1,2.5-8.3c0-1.6-0.6-3-2.5-5c-1.9,2.1-2.5,3.4-2.5,5C57.4,16.5,59.4,18.8,59.8,22.6 M55.8,22.1c-1,0.9-2.9,0.3-2.9-1.8c0-1.2,1.2-2.2,2.4-2.2c2.4,0,3.5,2.5,3.5,3.7c0,0.9-0.4,2.4-1.9,2.4c0.7-0.4,1-1.2,0.9-1.8 c-0.1-0.7-0.6-1.7-1.6-1.7c-0.6,0-1,0.4-1,0.8C55.3,21.8,55.5,22.1,55.8,22.1 M63.9,22.1c1,0.9,2.9,0.3,2.9-1.8 c0-1.2-1.2-2.2-2.4-2.2c-2.4,0-3.5,2.5-3.5,3.7c0,0.9,0.4,2.4,1.9,2.4c-0.7-0.4-1-1.2-0.9-1.8c0.1-0.7,0.6-1.7,1.6-1.7 c0.6,0,1,0.4,1,0.8C64.4,21.8,64.2,22.1,63.9,22.1"></path> <path class="st1" d="M41.3,28.2H43v12.4h-1.8V28.2z M38.5,40.6h-1.8v-5.4h-7.4v5.4h-1.8V28.2h1.8v5.4h7.4v-5.4h1.8V40.6 M87.1,34.2 l5.3,6.4h-2.1L86,35.5l-4.3,5.1h-2.2l5.3-6.4l-5-6h2.2l3.9,4.7l3.9-4.7H92L87.1,34.2"></path> <path class="st1" d="M73.6,28c4.1,0,6.7,2.9,6.7,6.3c0,3.3-2.5,6.4-6.7,6.4c-4,0-6.6-3-6.6-6.4C66.9,31,69.5,28,73.6,28 M73.6,39.1 c2.8,0,4.8-2,4.8-4.7c0-2.7-2-4.7-4.8-4.7c-2.8,0-4.8,2-4.8,4.7C68.7,37.1,70.8,39.1,73.6,39.1z"></path> <path class="st2" d="M27.6,9.2v31.5h64.8V9.2"></path> <path class="st1" d="M65.3,37.5c-0.9,1-2.2,1.7-3.7,1.7c-2.8,0-4.8-2-4.8-4.7c0-2.7,2-4.7,4.8-4.7c1.5,0,2.8,0.6,3.7,1.6l0.9-1.6 c-1.1-1-2.7-1.6-4.6-1.6c-4,0-6.6,2.9-6.6,6.3c0,3.4,2.6,6.4,6.6,6.4c2,0,3.6-0.7,4.7-1.7L65.3,37.5 M52.6,30.5c-1-0.8-2.2-1-3-1 c-1.3,0-2.4,0.6-2.4,1.6c0,2.4,6.3,2.4,6.3,6.3c0,2.6-2.6,3.4-4.6,3.3c-1.4-0.1-2.4-0.3-3.5-1.1v-1.8c1.1,0.7,2.1,1.1,3.2,1.2 c1.3,0.1,3.1-0.2,3.1-1.7c0-2.6-6.4-2.6-6.4-6c0-2,1.8-3.3,4-3.3c1.4,0,2.3,0.3,3.2,0.8L52.6,30.5"></path> </g> </svg>