<svg xmlns="http://www.w3.org/2000/svg" xmlns:xlink="http://www.w3.org/1999/xlink" id="Capa_1" x="0px" y="0px" viewBox="0 0 120 50" style="enable-background:new 0 0 120 50;" xml:space="preserve"> <style type="text/css"> .st0{fill:#1D1D1B;} </style> <g> <path class="st0" d="M96.8,27.9h-9v-2.3h9V27.9z M87.8,21.9h9v2.2h-9V21.9z M96.2,29.5c1.6,0,2.3-0.7,2.3-1.9v-1.1 c0-0.3-0.1-0.5-0.3-0.7l-1-0.9l1-0.9c0.2-0.2,0.3-0.4,0.3-0.7v-0.9c0-1.2-0.7-1.9-2.3-1.9h-10v9.1H96.2z M79.4,27.9h-9v-2.3h9V27.9 z M70.4,21.9h9v2.2h-9V21.9z M78.7,29.5c1.6,0,2.3-0.7,2.3-1.9v-1.1c0-0.3-0.1-0.5-0.3-0.7l-1-0.9l1-0.9c0.2-0.2,0.3-0.4,0.3-0.7 v-0.9c0-1.2-0.7-1.9-2.3-1.9h-10v9.1H78.7z M61.6,20.3v7.5H53v-7.5h-1.6v7.1c0,1.3,0.7,2.1,2.2,2.1H61c1.5,0,2.2-0.8,2.2-2.1v-7.1 H61.6z M35.5,24.1v-3.7h-1.6v9.1h1.6v-3.8h8.7v3.8h1.6v-9.1h-1.6v3.7H35.5z M29.2,22v-1.6h-9.5c-1.5,0-2.2,0.8-2.2,2.1v5 c0,1.3,0.7,2.1,2.2,2.1h9.5v-1.6H19.1V22H29.2z"></path> <path class="st0" d="M101.8,20.4c0.1,0.1,0.3,0.2,0.4,0.3c0.1,0.1,0.2,0.2,0.2,0.4c0.1,0.2,0.1,0.3,0.1,0.5c0,0.2,0,0.3-0.1,0.5 c-0.1,0.2-0.1,0.3-0.2,0.4c-0.1,0.1-0.2,0.2-0.4,0.3c-0.1,0.1-0.3,0.1-0.5,0.1c-0.2,0-0.3,0-0.5-0.1c-0.1-0.1-0.3-0.2-0.4-0.3 c-0.1-0.1-0.2-0.2-0.2-0.4c-0.1-0.2-0.1-0.3-0.1-0.5c0-0.2,0-0.3,0.1-0.5c0.1-0.2,0.1-0.3,0.2-0.4c0.1-0.1,0.2-0.2,0.4-0.3 c0.1-0.1,0.3-0.1,0.5-0.1C101.5,20.3,101.7,20.3,101.8,20.4 M101,20.6c-0.1,0.1-0.2,0.1-0.3,0.2c-0.1,0.1-0.2,0.2-0.2,0.3 c0,0.1-0.1,0.3-0.1,0.4c0,0.1,0,0.3,0.1,0.4c0,0.1,0.1,0.2,0.2,0.3c0.1,0.1,0.2,0.2,0.3,0.2c0.1,0.1,0.3,0.1,0.4,0.1 c0.1,0,0.3,0,0.4-0.1c0.1-0.1,0.2-0.1,0.3-0.2c0.1-0.1,0.2-0.2,0.2-0.3c0-0.1,0.1-0.3,0.1-0.4c0-0.2,0-0.3-0.1-0.4 s-0.1-0.2-0.2-0.3c-0.1-0.1-0.2-0.2-0.3-0.2c-0.1-0.1-0.3-0.1-0.4-0.1C101.2,20.5,101.1,20.5,101,20.6 M100.9,22.3v-1.4h0.5 c0.2,0,0.3,0,0.3,0.1c0.1,0.1,0.1,0.2,0.1,0.3c0,0.1,0,0.1,0,0.2c0,0,0,0.1-0.1,0.1c0,0-0.1,0.1-0.1,0.1c0,0-0.1,0-0.1,0l0.4,0.6 h-0.2l-0.4-0.6h-0.3v0.6H100.9z M101.5,21.5c0,0,0.1,0,0.1,0c0,0,0.1,0,0.1-0.1c0,0,0-0.1,0-0.1c0-0.1,0-0.1,0-0.1 c0,0,0-0.1-0.1-0.1c0,0-0.1,0-0.1,0c0,0-0.1,0-0.1,0h-0.3v0.5h0.2C101.4,21.5,101.4,21.5,101.5,21.5"></path> </g> </svg>